<mxfile host="app.diagrams.net" modified="2024-04-28T06:20:40.538Z" agent="Mozilla/5.0 (Windows NT 10.0; Win64; x64) AppleWebKit/537.36 (KHTML, like Gecko) Chrome/124.0.0.0 Safari/537.36" etag="1wN86K8bOqlVlpYQlCce" version="24.3.1" type="github" pages="17">
  <diagram name="Log In (For Users)" id="2YBvvXClWsGukQMizWep">
    <mxGraphModel dx="1050" dy="522" grid="1" gridSize="10" guides="1" tooltips="1" connect="1" arrows="1" fold="1" page="1" pageScale="1" pageWidth="850" pageHeight="1100" math="0" shadow="0">
      <root>
        <mxCell id="0" />
        <mxCell id="1" parent="0" />
        <mxCell id="KhS_SIurzg8FkIi6MvbF-1" value="&lt;b&gt;&lt;font style=&quot;font-size: 16px;&quot;&gt;Log In (For User)&lt;/font&gt;&lt;/b&gt;" style="text;html=1;align=center;verticalAlign=middle;whiteSpace=wrap;rounded=0;fillColor=#fff2cc;strokeColor=#d6b656;" parent="1" vertex="1">
          <mxGeometry x="360" y="80" width="190" height="40" as="geometry" />
        </mxCell>
        <mxCell id="KhS_SIurzg8FkIi6MvbF-2" value="Users" style="shape=umlActor;verticalLabelPosition=bottom;verticalAlign=top;html=1;outlineConnect=0;" parent="1" vertex="1">
          <mxGeometry x="320" y="160" width="40" height="70" as="geometry" />
        </mxCell>
        <mxCell id="KhS_SIurzg8FkIi6MvbF-3" value="System" style="rounded=0;whiteSpace=wrap;html=1;" parent="1" vertex="1">
          <mxGeometry x="520" y="160" width="120" height="80" as="geometry" />
        </mxCell>
        <mxCell id="KhS_SIurzg8FkIi6MvbF-6" value="" style="endArrow=none;dashed=1;html=1;dashPattern=1 3;strokeWidth=2;rounded=0;" parent="1" edge="1">
          <mxGeometry width="50" height="50" relative="1" as="geometry">
            <mxPoint x="340" y="320" as="sourcePoint" />
            <mxPoint x="339.5" y="260" as="targetPoint" />
          </mxGeometry>
        </mxCell>
        <mxCell id="KhS_SIurzg8FkIi6MvbF-7" value="" style="endArrow=none;dashed=1;html=1;dashPattern=1 3;strokeWidth=2;rounded=0;entryX=0.5;entryY=1;entryDx=0;entryDy=0;" parent="1" target="KhS_SIurzg8FkIi6MvbF-3" edge="1">
          <mxGeometry width="50" height="50" relative="1" as="geometry">
            <mxPoint x="580" y="320" as="sourcePoint" />
            <mxPoint x="579.58" y="260" as="targetPoint" />
          </mxGeometry>
        </mxCell>
        <mxCell id="KhS_SIurzg8FkIi6MvbF-8" value="" style="rounded=0;whiteSpace=wrap;html=1;" parent="1" vertex="1">
          <mxGeometry x="337.5" y="320" width="5" height="200" as="geometry" />
        </mxCell>
        <mxCell id="KhS_SIurzg8FkIi6MvbF-9" value="" style="rounded=0;whiteSpace=wrap;html=1;" parent="1" vertex="1">
          <mxGeometry x="577.5" y="320" width="5" height="190" as="geometry" />
        </mxCell>
        <mxCell id="KhS_SIurzg8FkIi6MvbF-10" value="" style="endArrow=classic;html=1;rounded=0;entryX=0;entryY=0.25;entryDx=0;entryDy=0;exitX=1;exitY=0.25;exitDx=0;exitDy=0;" parent="1" edge="1">
          <mxGeometry width="50" height="50" relative="1" as="geometry">
            <mxPoint x="342.5" y="362.5" as="sourcePoint" />
            <mxPoint x="577.5" y="360.0000000000001" as="targetPoint" />
          </mxGeometry>
        </mxCell>
        <mxCell id="KhS_SIurzg8FkIi6MvbF-11" value="Log In" style="edgeLabel;html=1;align=center;verticalAlign=middle;resizable=0;points=[];" parent="KhS_SIurzg8FkIi6MvbF-10" vertex="1" connectable="0">
          <mxGeometry x="-0.0226" y="1" relative="1" as="geometry">
            <mxPoint as="offset" />
          </mxGeometry>
        </mxCell>
        <mxCell id="KhS_SIurzg8FkIi6MvbF-12" value="" style="shape=flexArrow;endArrow=classic;html=1;rounded=0;entryX=1;entryY=0.75;entryDx=0;entryDy=0;exitX=0;exitY=0.75;exitDx=0;exitDy=0;" parent="1" edge="1">
          <mxGeometry width="50" height="50" relative="1" as="geometry">
            <mxPoint x="577.5" y="400" as="sourcePoint" />
            <mxPoint x="342.5" y="400" as="targetPoint" />
          </mxGeometry>
        </mxCell>
        <mxCell id="KhS_SIurzg8FkIi6MvbF-14" value="Request Verification" style="edgeLabel;html=1;align=center;verticalAlign=middle;resizable=0;points=[];" parent="KhS_SIurzg8FkIi6MvbF-12" vertex="1" connectable="0">
          <mxGeometry x="0.0165" y="-1" relative="1" as="geometry">
            <mxPoint as="offset" />
          </mxGeometry>
        </mxCell>
        <mxCell id="KhS_SIurzg8FkIi6MvbF-15" value="" style="endArrow=classic;html=1;rounded=0;entryX=0;entryY=0.25;entryDx=0;entryDy=0;exitX=1;exitY=0.25;exitDx=0;exitDy=0;" parent="1" edge="1">
          <mxGeometry width="50" height="50" relative="1" as="geometry">
            <mxPoint x="342.5" y="440" as="sourcePoint" />
            <mxPoint x="577.5" y="440" as="targetPoint" />
          </mxGeometry>
        </mxCell>
        <mxCell id="KhS_SIurzg8FkIi6MvbF-16" value="Submit Verification" style="edgeLabel;html=1;align=center;verticalAlign=middle;resizable=0;points=[];" parent="KhS_SIurzg8FkIi6MvbF-15" vertex="1" connectable="0">
          <mxGeometry x="-0.0226" y="1" relative="1" as="geometry">
            <mxPoint as="offset" />
          </mxGeometry>
        </mxCell>
        <mxCell id="KhS_SIurzg8FkIi6MvbF-19" value="" style="endArrow=none;html=1;rounded=0;exitX=1.7;exitY=0.421;exitDx=0;exitDy=0;exitPerimeter=0;" parent="1" source="KhS_SIurzg8FkIi6MvbF-9" edge="1">
          <mxGeometry width="50" height="50" relative="1" as="geometry">
            <mxPoint x="430" y="390" as="sourcePoint" />
            <mxPoint x="600" y="400" as="targetPoint" />
          </mxGeometry>
        </mxCell>
        <mxCell id="KhS_SIurzg8FkIi6MvbF-20" value="" style="endArrow=none;html=1;rounded=0;" parent="1" edge="1">
          <mxGeometry width="50" height="50" relative="1" as="geometry">
            <mxPoint x="600" y="430" as="sourcePoint" />
            <mxPoint x="600" y="400" as="targetPoint" />
          </mxGeometry>
        </mxCell>
        <mxCell id="KhS_SIurzg8FkIi6MvbF-21" value="" style="endArrow=classic;html=1;rounded=0;entryX=1.22;entryY=0.579;entryDx=0;entryDy=0;entryPerimeter=0;" parent="1" target="KhS_SIurzg8FkIi6MvbF-9" edge="1">
          <mxGeometry width="50" height="50" relative="1" as="geometry">
            <mxPoint x="600" y="430" as="sourcePoint" />
            <mxPoint x="610" y="380" as="targetPoint" />
          </mxGeometry>
        </mxCell>
        <mxCell id="KhS_SIurzg8FkIi6MvbF-22" value="Access System" style="text;html=1;align=center;verticalAlign=middle;whiteSpace=wrap;rounded=0;" parent="1" vertex="1">
          <mxGeometry x="610" y="400" width="60" height="30" as="geometry" />
        </mxCell>
        <mxCell id="e7UH7H5g_I_dRECc_2tC-1" value="" style="shape=flexArrow;endArrow=classic;html=1;rounded=0;entryX=1;entryY=0.75;entryDx=0;entryDy=0;exitX=0;exitY=0.75;exitDx=0;exitDy=0;" parent="1" edge="1">
          <mxGeometry width="50" height="50" relative="1" as="geometry">
            <mxPoint x="577.5" y="480" as="sourcePoint" />
            <mxPoint x="342.5" y="480" as="targetPoint" />
          </mxGeometry>
        </mxCell>
        <mxCell id="e7UH7H5g_I_dRECc_2tC-2" value="&lt;font style=&quot;font-size: 9px;&quot;&gt;Show recommend groups &amp;amp; resources&lt;/font&gt;" style="edgeLabel;html=1;align=center;verticalAlign=middle;resizable=0;points=[];" parent="e7UH7H5g_I_dRECc_2tC-1" vertex="1" connectable="0">
          <mxGeometry x="0.0165" y="-1" relative="1" as="geometry">
            <mxPoint as="offset" />
          </mxGeometry>
        </mxCell>
      </root>
    </mxGraphModel>
  </diagram>
  <diagram id="j-04Oj4fflf5CgNk4-W-" name="Sign Up (For Users)">
    <mxGraphModel dx="1050" dy="522" grid="1" gridSize="10" guides="1" tooltips="1" connect="1" arrows="1" fold="1" page="1" pageScale="1" pageWidth="827" pageHeight="1169" math="0" shadow="0">
      <root>
        <mxCell id="0" />
        <mxCell id="1" parent="0" />
        <mxCell id="VgkPqREX29JEdFOWtUd8-1" value="Users" style="shape=umlActor;verticalLabelPosition=bottom;verticalAlign=top;html=1;outlineConnect=0;" parent="1" vertex="1">
          <mxGeometry x="320" y="160" width="40" height="70" as="geometry" />
        </mxCell>
        <mxCell id="VgkPqREX29JEdFOWtUd8-2" value="System" style="rounded=0;whiteSpace=wrap;html=1;" parent="1" vertex="1">
          <mxGeometry x="520" y="160" width="120" height="80" as="geometry" />
        </mxCell>
        <mxCell id="VgkPqREX29JEdFOWtUd8-3" value="" style="endArrow=none;dashed=1;html=1;dashPattern=1 3;strokeWidth=2;rounded=0;" parent="1" edge="1">
          <mxGeometry width="50" height="50" relative="1" as="geometry">
            <mxPoint x="340" y="320" as="sourcePoint" />
            <mxPoint x="339.5" y="260" as="targetPoint" />
          </mxGeometry>
        </mxCell>
        <mxCell id="VgkPqREX29JEdFOWtUd8-4" value="" style="endArrow=none;dashed=1;html=1;dashPattern=1 3;strokeWidth=2;rounded=0;entryX=0.5;entryY=1;entryDx=0;entryDy=0;" parent="1" target="VgkPqREX29JEdFOWtUd8-2" edge="1">
          <mxGeometry width="50" height="50" relative="1" as="geometry">
            <mxPoint x="580" y="320" as="sourcePoint" />
            <mxPoint x="579.58" y="260" as="targetPoint" />
          </mxGeometry>
        </mxCell>
        <mxCell id="VgkPqREX29JEdFOWtUd8-5" value="" style="rounded=0;whiteSpace=wrap;html=1;" parent="1" vertex="1">
          <mxGeometry x="337.5" y="320" width="5" height="320" as="geometry" />
        </mxCell>
        <mxCell id="VgkPqREX29JEdFOWtUd8-6" value="" style="rounded=0;whiteSpace=wrap;html=1;" parent="1" vertex="1">
          <mxGeometry x="577.93" y="310" width="5" height="320" as="geometry" />
        </mxCell>
        <mxCell id="VgkPqREX29JEdFOWtUd8-7" value="" style="endArrow=classic;html=1;rounded=0;exitX=1.426;exitY=0.114;exitDx=0;exitDy=0;exitPerimeter=0;entryX=-0.453;entryY=0.153;entryDx=0;entryDy=0;entryPerimeter=0;" parent="1" source="VgkPqREX29JEdFOWtUd8-5" target="VgkPqREX29JEdFOWtUd8-6" edge="1">
          <mxGeometry width="50" height="50" relative="1" as="geometry">
            <mxPoint x="342.49499999999995" y="363.43999999999994" as="sourcePoint" />
            <mxPoint x="570.43" y="350" as="targetPoint" />
          </mxGeometry>
        </mxCell>
        <mxCell id="VgkPqREX29JEdFOWtUd8-8" value="Sign Up" style="edgeLabel;html=1;align=center;verticalAlign=middle;resizable=0;points=[];" parent="VgkPqREX29JEdFOWtUd8-7" vertex="1" connectable="0">
          <mxGeometry x="-0.0226" y="1" relative="1" as="geometry">
            <mxPoint as="offset" />
          </mxGeometry>
        </mxCell>
        <mxCell id="VgkPqREX29JEdFOWtUd8-9" value="" style="shape=flexArrow;endArrow=classic;html=1;rounded=0;entryX=1;entryY=0.75;entryDx=0;entryDy=0;exitX=0;exitY=0.75;exitDx=0;exitDy=0;" parent="1" edge="1">
          <mxGeometry width="50" height="50" relative="1" as="geometry">
            <mxPoint x="577.5" y="400" as="sourcePoint" />
            <mxPoint x="342.5" y="400" as="targetPoint" />
          </mxGeometry>
        </mxCell>
        <mxCell id="VgkPqREX29JEdFOWtUd8-10" value="Request Information" style="edgeLabel;html=1;align=center;verticalAlign=middle;resizable=0;points=[];" parent="VgkPqREX29JEdFOWtUd8-9" vertex="1" connectable="0">
          <mxGeometry x="0.0165" y="-1" relative="1" as="geometry">
            <mxPoint as="offset" />
          </mxGeometry>
        </mxCell>
        <mxCell id="VgkPqREX29JEdFOWtUd8-11" value="" style="endArrow=classic;html=1;rounded=0;entryX=0;entryY=0.25;entryDx=0;entryDy=0;exitX=1;exitY=0.25;exitDx=0;exitDy=0;" parent="1" edge="1">
          <mxGeometry width="50" height="50" relative="1" as="geometry">
            <mxPoint x="342.5" y="440" as="sourcePoint" />
            <mxPoint x="577.5" y="440" as="targetPoint" />
          </mxGeometry>
        </mxCell>
        <mxCell id="VgkPqREX29JEdFOWtUd8-12" value="Submit Information" style="edgeLabel;html=1;align=center;verticalAlign=middle;resizable=0;points=[];" parent="VgkPqREX29JEdFOWtUd8-11" vertex="1" connectable="0">
          <mxGeometry x="-0.0226" y="1" relative="1" as="geometry">
            <mxPoint as="offset" />
          </mxGeometry>
        </mxCell>
        <mxCell id="VgkPqREX29JEdFOWtUd8-13" value="" style="endArrow=none;html=1;rounded=0;" parent="1" edge="1">
          <mxGeometry width="50" height="50" relative="1" as="geometry">
            <mxPoint x="582.5" y="480" as="sourcePoint" />
            <mxPoint x="602.5" y="480" as="targetPoint" />
          </mxGeometry>
        </mxCell>
        <mxCell id="VgkPqREX29JEdFOWtUd8-14" value="" style="endArrow=none;html=1;rounded=0;" parent="1" edge="1">
          <mxGeometry width="50" height="50" relative="1" as="geometry">
            <mxPoint x="602.5" y="510" as="sourcePoint" />
            <mxPoint x="602.5" y="480" as="targetPoint" />
          </mxGeometry>
        </mxCell>
        <mxCell id="VgkPqREX29JEdFOWtUd8-15" value="" style="endArrow=classic;html=1;rounded=0;entryX=1.089;entryY=0.395;entryDx=0;entryDy=0;entryPerimeter=0;" parent="1" edge="1">
          <mxGeometry width="50" height="50" relative="1" as="geometry">
            <mxPoint x="602.5" y="510" as="sourcePoint" />
            <mxPoint x="585.445" y="510.6" as="targetPoint" />
          </mxGeometry>
        </mxCell>
        <mxCell id="VgkPqREX29JEdFOWtUd8-16" value="Update data" style="text;html=1;align=center;verticalAlign=middle;whiteSpace=wrap;rounded=0;" parent="1" vertex="1">
          <mxGeometry x="610" y="480" width="60" height="30" as="geometry" />
        </mxCell>
        <mxCell id="Z2cZIjsuGG9dpp_wJFyk-1" value="&lt;b&gt;&lt;font style=&quot;font-size: 16px;&quot;&gt;Sign Up (For User)&lt;/font&gt;&lt;/b&gt;" style="text;html=1;align=center;verticalAlign=middle;whiteSpace=wrap;rounded=0;fillColor=#fff2cc;strokeColor=#d6b656;" parent="1" vertex="1">
          <mxGeometry x="360" y="80" width="190" height="40" as="geometry" />
        </mxCell>
        <mxCell id="Z2cZIjsuGG9dpp_wJFyk-2" value="" style="shape=flexArrow;endArrow=classic;html=1;rounded=0;entryX=1;entryY=0.75;entryDx=0;entryDy=0;exitX=0;exitY=0.75;exitDx=0;exitDy=0;" parent="1" edge="1">
          <mxGeometry width="50" height="50" relative="1" as="geometry">
            <mxPoint x="577.5" y="480" as="sourcePoint" />
            <mxPoint x="342.5" y="480" as="targetPoint" />
          </mxGeometry>
        </mxCell>
        <mxCell id="Z2cZIjsuGG9dpp_wJFyk-3" value="CAPTCHA" style="edgeLabel;html=1;align=center;verticalAlign=middle;resizable=0;points=[];" parent="Z2cZIjsuGG9dpp_wJFyk-2" vertex="1" connectable="0">
          <mxGeometry x="0.0165" y="-1" relative="1" as="geometry">
            <mxPoint as="offset" />
          </mxGeometry>
        </mxCell>
        <mxCell id="Z2cZIjsuGG9dpp_wJFyk-6" value="" style="endArrow=classic;html=1;rounded=0;entryX=0;entryY=0.25;entryDx=0;entryDy=0;exitX=1;exitY=0.25;exitDx=0;exitDy=0;" parent="1" edge="1">
          <mxGeometry width="50" height="50" relative="1" as="geometry">
            <mxPoint x="342.5" y="520" as="sourcePoint" />
            <mxPoint x="577.5" y="520" as="targetPoint" />
          </mxGeometry>
        </mxCell>
        <mxCell id="Z2cZIjsuGG9dpp_wJFyk-7" value="Verify CAPTCHA" style="edgeLabel;html=1;align=center;verticalAlign=middle;resizable=0;points=[];" parent="Z2cZIjsuGG9dpp_wJFyk-6" vertex="1" connectable="0">
          <mxGeometry x="-0.0226" y="1" relative="1" as="geometry">
            <mxPoint as="offset" />
          </mxGeometry>
        </mxCell>
        <mxCell id="Z2cZIjsuGG9dpp_wJFyk-8" value="" style="shape=flexArrow;endArrow=classic;html=1;rounded=0;entryX=1;entryY=0.75;entryDx=0;entryDy=0;exitX=0;exitY=0.75;exitDx=0;exitDy=0;" parent="1" edge="1">
          <mxGeometry width="50" height="50" relative="1" as="geometry">
            <mxPoint x="577.5" y="560" as="sourcePoint" />
            <mxPoint x="342.5" y="560" as="targetPoint" />
          </mxGeometry>
        </mxCell>
        <mxCell id="Z2cZIjsuGG9dpp_wJFyk-9" value="Report Sign Up successfully" style="edgeLabel;html=1;align=center;verticalAlign=middle;resizable=0;points=[];" parent="Z2cZIjsuGG9dpp_wJFyk-8" vertex="1" connectable="0">
          <mxGeometry x="0.0165" y="-1" relative="1" as="geometry">
            <mxPoint as="offset" />
          </mxGeometry>
        </mxCell>
        <mxCell id="0pg529Bu2k0n-M1dEyWv-2" value="" style="shape=flexArrow;endArrow=classic;html=1;rounded=0;entryX=1;entryY=0.75;entryDx=0;entryDy=0;exitX=0;exitY=0.75;exitDx=0;exitDy=0;" parent="1" edge="1">
          <mxGeometry width="50" height="50" relative="1" as="geometry">
            <mxPoint x="577.93" y="610" as="sourcePoint" />
            <mxPoint x="342.93" y="610" as="targetPoint" />
          </mxGeometry>
        </mxCell>
        <mxCell id="0pg529Bu2k0n-M1dEyWv-3" value="&lt;font style=&quot;font-size: 9px;&quot;&gt;Show recommend groups &amp;amp; resources&lt;/font&gt;" style="edgeLabel;html=1;align=center;verticalAlign=middle;resizable=0;points=[];" parent="0pg529Bu2k0n-M1dEyWv-2" vertex="1" connectable="0">
          <mxGeometry x="0.0165" y="-1" relative="1" as="geometry">
            <mxPoint as="offset" />
          </mxGeometry>
        </mxCell>
      </root>
    </mxGraphModel>
  </diagram>
  <diagram id="8Vz-SuzeotA0QUPl4NsJ" name="Join Group (For Users)">
    <mxGraphModel dx="1050" dy="522" grid="1" gridSize="10" guides="1" tooltips="1" connect="1" arrows="1" fold="1" page="1" pageScale="1" pageWidth="827" pageHeight="1169" math="0" shadow="0">
      <root>
        <mxCell id="0" />
        <mxCell id="1" parent="0" />
        <mxCell id="vDXCtJJe7j970LcEJP9p-1" value="Users" style="shape=umlActor;verticalLabelPosition=bottom;verticalAlign=top;html=1;outlineConnect=0;" parent="1" vertex="1">
          <mxGeometry x="320" y="160" width="40" height="70" as="geometry" />
        </mxCell>
        <mxCell id="vDXCtJJe7j970LcEJP9p-2" value="System" style="rounded=0;whiteSpace=wrap;html=1;" parent="1" vertex="1">
          <mxGeometry x="520" y="160" width="120" height="80" as="geometry" />
        </mxCell>
        <mxCell id="vDXCtJJe7j970LcEJP9p-3" value="" style="endArrow=none;dashed=1;html=1;dashPattern=1 3;strokeWidth=2;rounded=0;" parent="1" edge="1">
          <mxGeometry width="50" height="50" relative="1" as="geometry">
            <mxPoint x="340" y="320" as="sourcePoint" />
            <mxPoint x="339.5" y="260" as="targetPoint" />
          </mxGeometry>
        </mxCell>
        <mxCell id="vDXCtJJe7j970LcEJP9p-4" value="" style="endArrow=none;dashed=1;html=1;dashPattern=1 3;strokeWidth=2;rounded=0;entryX=0.5;entryY=1;entryDx=0;entryDy=0;" parent="1" target="vDXCtJJe7j970LcEJP9p-2" edge="1">
          <mxGeometry width="50" height="50" relative="1" as="geometry">
            <mxPoint x="580" y="320" as="sourcePoint" />
            <mxPoint x="579.58" y="260" as="targetPoint" />
          </mxGeometry>
        </mxCell>
        <mxCell id="vDXCtJJe7j970LcEJP9p-5" value="" style="endArrow=classic;html=1;rounded=0;exitX=0.913;exitY=0.167;exitDx=0;exitDy=0;exitPerimeter=0;entryX=0.5;entryY=0.167;entryDx=0;entryDy=0;entryPerimeter=0;" parent="1" edge="1">
          <mxGeometry width="50" height="50" relative="1" as="geometry">
            <mxPoint x="342" y="367" as="sourcePoint" />
            <mxPoint x="580" y="367" as="targetPoint" />
          </mxGeometry>
        </mxCell>
        <mxCell id="vDXCtJJe7j970LcEJP9p-6" value="Click join group" style="edgeLabel;html=1;align=center;verticalAlign=middle;resizable=0;points=[];" parent="vDXCtJJe7j970LcEJP9p-5" vertex="1" connectable="0">
          <mxGeometry x="-0.0226" y="1" relative="1" as="geometry">
            <mxPoint as="offset" />
          </mxGeometry>
        </mxCell>
        <mxCell id="vDXCtJJe7j970LcEJP9p-7" value="" style="shape=flexArrow;endArrow=classic;html=1;rounded=0;entryX=1;entryY=0.75;entryDx=0;entryDy=0;exitX=0;exitY=0.75;exitDx=0;exitDy=0;" parent="1" edge="1">
          <mxGeometry width="50" height="50" relative="1" as="geometry">
            <mxPoint x="577.5" y="400" as="sourcePoint" />
            <mxPoint x="342.5" y="400" as="targetPoint" />
          </mxGeometry>
        </mxCell>
        <mxCell id="vDXCtJJe7j970LcEJP9p-8" value="&lt;font style=&quot;font-size: 9px;&quot;&gt;Report join protected group succesfully&lt;/font&gt;" style="edgeLabel;html=1;align=center;verticalAlign=middle;resizable=0;points=[];" parent="vDXCtJJe7j970LcEJP9p-7" vertex="1" connectable="0">
          <mxGeometry x="0.0165" y="-1" relative="1" as="geometry">
            <mxPoint as="offset" />
          </mxGeometry>
        </mxCell>
        <mxCell id="vDXCtJJe7j970LcEJP9p-11" value="" style="endArrow=none;html=1;rounded=0;" parent="1" edge="1">
          <mxGeometry width="50" height="50" relative="1" as="geometry">
            <mxPoint x="582.5" y="370" as="sourcePoint" />
            <mxPoint x="602.5" y="370" as="targetPoint" />
          </mxGeometry>
        </mxCell>
        <mxCell id="vDXCtJJe7j970LcEJP9p-12" value="" style="endArrow=none;html=1;rounded=0;" parent="1" edge="1">
          <mxGeometry width="50" height="50" relative="1" as="geometry">
            <mxPoint x="602.5" y="400" as="sourcePoint" />
            <mxPoint x="602.5" y="370" as="targetPoint" />
          </mxGeometry>
        </mxCell>
        <mxCell id="vDXCtJJe7j970LcEJP9p-13" value="" style="endArrow=classic;html=1;rounded=0;entryX=1.089;entryY=0.395;entryDx=0;entryDy=0;entryPerimeter=0;" parent="1" edge="1">
          <mxGeometry width="50" height="50" relative="1" as="geometry">
            <mxPoint x="602.5" y="400" as="sourcePoint" />
            <mxPoint x="585.445" y="400.6" as="targetPoint" />
          </mxGeometry>
        </mxCell>
        <mxCell id="vDXCtJJe7j970LcEJP9p-14" value="&lt;b&gt;&lt;font style=&quot;font-size: 16px;&quot;&gt;Join Group (For User)&lt;/font&gt;&lt;/b&gt;" style="text;html=1;align=center;verticalAlign=middle;whiteSpace=wrap;rounded=0;fillColor=#fff2cc;strokeColor=#d6b656;" parent="1" vertex="1">
          <mxGeometry x="360" y="80" width="190" height="40" as="geometry" />
        </mxCell>
        <mxCell id="BYoWmTHlFIkifEXlnC4S-1" value="" style="rounded=0;whiteSpace=wrap;html=1;" parent="1" vertex="1">
          <mxGeometry x="337.5" y="320" width="5" height="120" as="geometry" />
        </mxCell>
        <mxCell id="BYoWmTHlFIkifEXlnC4S-2" value="" style="rounded=0;whiteSpace=wrap;html=1;" parent="1" vertex="1">
          <mxGeometry x="577.5" y="320" width="5" height="120" as="geometry" />
        </mxCell>
        <mxCell id="BYoWmTHlFIkifEXlnC4S-3" value="Update data" style="text;html=1;align=center;verticalAlign=middle;whiteSpace=wrap;rounded=0;" parent="1" vertex="1">
          <mxGeometry x="610" y="370" width="60" height="30" as="geometry" />
        </mxCell>
      </root>
    </mxGraphModel>
  </diagram>
  <diagram id="rXdIgrXcmgz10WFYiCUh" name="Join Private Group (For Users)">
    <mxGraphModel dx="1050" dy="522" grid="1" gridSize="10" guides="1" tooltips="1" connect="1" arrows="1" fold="1" page="1" pageScale="1" pageWidth="827" pageHeight="1169" math="0" shadow="0">
      <root>
        <mxCell id="0" />
        <mxCell id="1" parent="0" />
        <mxCell id="TPfItC5gqsjEEDBqDWBW-1" value="Users" style="shape=umlActor;verticalLabelPosition=bottom;verticalAlign=top;html=1;outlineConnect=0;" parent="1" vertex="1">
          <mxGeometry x="320" y="160" width="40" height="70" as="geometry" />
        </mxCell>
        <mxCell id="TPfItC5gqsjEEDBqDWBW-2" value="System" style="rounded=0;whiteSpace=wrap;html=1;" parent="1" vertex="1">
          <mxGeometry x="637.5" y="155" width="120" height="80" as="geometry" />
        </mxCell>
        <mxCell id="TPfItC5gqsjEEDBqDWBW-3" value="" style="endArrow=none;dashed=1;html=1;dashPattern=1 3;strokeWidth=2;rounded=0;" parent="1" edge="1">
          <mxGeometry width="50" height="50" relative="1" as="geometry">
            <mxPoint x="340" y="320" as="sourcePoint" />
            <mxPoint x="339.5" y="260" as="targetPoint" />
          </mxGeometry>
        </mxCell>
        <mxCell id="TPfItC5gqsjEEDBqDWBW-4" value="" style="endArrow=none;dashed=1;html=1;dashPattern=1 3;strokeWidth=2;rounded=0;entryX=0.5;entryY=1;entryDx=0;entryDy=0;exitX=1;exitY=0;exitDx=0;exitDy=0;exitPerimeter=0;" parent="1" source="TPfItC5gqsjEEDBqDWBW-14" target="TPfItC5gqsjEEDBqDWBW-2" edge="1">
          <mxGeometry width="50" height="50" relative="1" as="geometry">
            <mxPoint x="580" y="320" as="sourcePoint" />
            <mxPoint x="579.58" y="260" as="targetPoint" />
          </mxGeometry>
        </mxCell>
        <mxCell id="TPfItC5gqsjEEDBqDWBW-12" value="&lt;b&gt;&lt;font style=&quot;font-size: 16px;&quot;&gt;Join Private Group&amp;nbsp;&lt;/font&gt;&lt;/b&gt;&lt;div&gt;&lt;b&gt;&lt;font style=&quot;font-size: 16px;&quot;&gt;(For User)&lt;/font&gt;&lt;/b&gt;&lt;/div&gt;" style="text;html=1;align=center;verticalAlign=middle;whiteSpace=wrap;rounded=0;fillColor=#fff2cc;strokeColor=#d6b656;" parent="1" vertex="1">
          <mxGeometry x="420" y="80" width="190" height="40" as="geometry" />
        </mxCell>
        <mxCell id="TPfItC5gqsjEEDBqDWBW-13" value="" style="rounded=0;whiteSpace=wrap;html=1;" parent="1" vertex="1">
          <mxGeometry x="337.5" y="320" width="5" height="440" as="geometry" />
        </mxCell>
        <mxCell id="TPfItC5gqsjEEDBqDWBW-14" value="" style="rounded=0;whiteSpace=wrap;html=1;" parent="1" vertex="1">
          <mxGeometry x="695" y="320" width="5" height="440" as="geometry" />
        </mxCell>
        <mxCell id="TPfItC5gqsjEEDBqDWBW-21" value="" style="endArrow=classic;html=1;rounded=0;exitX=0.9;exitY=0.086;exitDx=0;exitDy=0;exitPerimeter=0;" parent="1" source="TPfItC5gqsjEEDBqDWBW-13" edge="1">
          <mxGeometry width="50" height="50" relative="1" as="geometry">
            <mxPoint x="490" y="270" as="sourcePoint" />
            <mxPoint x="690" y="360" as="targetPoint" />
          </mxGeometry>
        </mxCell>
        <mxCell id="aBFbH0yciQptnfh-WioT-3" value="Click join group" style="edgeLabel;html=1;align=center;verticalAlign=middle;resizable=0;points=[];" parent="TPfItC5gqsjEEDBqDWBW-21" vertex="1" connectable="0">
          <mxGeometry x="0.0532" relative="1" as="geometry">
            <mxPoint as="offset" />
          </mxGeometry>
        </mxCell>
        <mxCell id="TPfItC5gqsjEEDBqDWBW-23" value="" style="shape=flexArrow;endArrow=classic;html=1;rounded=0;entryX=1.463;entryY=0.091;entryDx=0;entryDy=0;entryPerimeter=0;" parent="1" edge="1">
          <mxGeometry width="50" height="50" relative="1" as="geometry">
            <mxPoint x="690" y="440" as="sourcePoint" />
            <mxPoint x="527.315" y="432.76" as="targetPoint" />
          </mxGeometry>
        </mxCell>
        <mxCell id="TPfItC5gqsjEEDBqDWBW-24" value="Report of joining request" style="edgeLabel;html=1;align=center;verticalAlign=middle;resizable=0;points=[];" parent="TPfItC5gqsjEEDBqDWBW-23" vertex="1" connectable="0">
          <mxGeometry x="-0.006" y="-1" relative="1" as="geometry">
            <mxPoint as="offset" />
          </mxGeometry>
        </mxCell>
        <mxCell id="TPfItC5gqsjEEDBqDWBW-25" value="" style="endArrow=classic;html=1;rounded=0;" parent="1" edge="1">
          <mxGeometry width="50" height="50" relative="1" as="geometry">
            <mxPoint x="530" y="480" as="sourcePoint" />
            <mxPoint x="690" y="480" as="targetPoint" />
          </mxGeometry>
        </mxCell>
        <mxCell id="TPfItC5gqsjEEDBqDWBW-26" value="Answer the request" style="edgeLabel;html=1;align=center;verticalAlign=middle;resizable=0;points=[];" parent="TPfItC5gqsjEEDBqDWBW-25" vertex="1" connectable="0">
          <mxGeometry x="-0.0043" y="-3" relative="1" as="geometry">
            <mxPoint as="offset" />
          </mxGeometry>
        </mxCell>
        <mxCell id="TPfItC5gqsjEEDBqDWBW-32" value="" style="shape=flexArrow;endArrow=classic;html=1;rounded=0;exitX=0.105;exitY=0.633;exitDx=0;exitDy=0;exitPerimeter=0;" parent="1" source="TPfItC5gqsjEEDBqDWBW-14" edge="1">
          <mxGeometry width="50" height="50" relative="1" as="geometry">
            <mxPoint x="690" y="600" as="sourcePoint" />
            <mxPoint x="340" y="600" as="targetPoint" />
          </mxGeometry>
        </mxCell>
        <mxCell id="TPfItC5gqsjEEDBqDWBW-33" value="Report Join Group Successfully" style="edgeLabel;html=1;align=center;verticalAlign=middle;resizable=0;points=[];" parent="TPfItC5gqsjEEDBqDWBW-32" vertex="1" connectable="0">
          <mxGeometry x="0.1747" y="1" relative="1" as="geometry">
            <mxPoint x="21" y="-1" as="offset" />
          </mxGeometry>
        </mxCell>
        <mxCell id="TPfItC5gqsjEEDBqDWBW-34" value="" style="endArrow=none;html=1;rounded=0;" parent="1" edge="1">
          <mxGeometry width="50" height="50" relative="1" as="geometry">
            <mxPoint x="280" y="640" as="sourcePoint" />
            <mxPoint x="780" y="640" as="targetPoint" />
          </mxGeometry>
        </mxCell>
        <mxCell id="TPfItC5gqsjEEDBqDWBW-38" value="" style="shape=flexArrow;endArrow=classic;html=1;rounded=0;entryX=1.1;entryY=0.906;entryDx=0;entryDy=0;entryPerimeter=0;" parent="1" target="TPfItC5gqsjEEDBqDWBW-13" edge="1">
          <mxGeometry width="50" height="50" relative="1" as="geometry">
            <mxPoint x="690" y="719" as="sourcePoint" />
            <mxPoint x="530" y="470" as="targetPoint" />
          </mxGeometry>
        </mxCell>
        <mxCell id="TPfItC5gqsjEEDBqDWBW-39" value="Report Join Group Fail" style="edgeLabel;html=1;align=center;verticalAlign=middle;resizable=0;points=[];" parent="TPfItC5gqsjEEDBqDWBW-38" vertex="1" connectable="0">
          <mxGeometry x="0.0418" y="-1" relative="1" as="geometry">
            <mxPoint x="4" as="offset" />
          </mxGeometry>
        </mxCell>
        <mxCell id="aBFbH0yciQptnfh-WioT-1" value="group leader" style="shape=umlActor;verticalLabelPosition=bottom;verticalAlign=top;html=1;outlineConnect=0;" parent="1" vertex="1">
          <mxGeometry x="495" y="160" width="40" height="70" as="geometry" />
        </mxCell>
        <mxCell id="aBFbH0yciQptnfh-WioT-2" value="" style="endArrow=none;dashed=1;html=1;dashPattern=1 3;strokeWidth=2;rounded=0;" parent="1" edge="1">
          <mxGeometry width="50" height="50" relative="1" as="geometry">
            <mxPoint x="520" y="400" as="sourcePoint" />
            <mxPoint x="520" y="250" as="targetPoint" />
          </mxGeometry>
        </mxCell>
        <mxCell id="aBFbH0yciQptnfh-WioT-9" value="" style="swimlane;whiteSpace=wrap;html=1;startSize=23;" parent="1" vertex="1">
          <mxGeometry x="280" y="510" width="500" height="280" as="geometry" />
        </mxCell>
        <mxCell id="aBFbH0yciQptnfh-WioT-10" value="" style="rounded=0;whiteSpace=wrap;html=1;" parent="aBFbH0yciQptnfh-WioT-9" vertex="1">
          <mxGeometry x="240" y="-100" width="5" height="360" as="geometry" />
        </mxCell>
        <mxCell id="aBFbH0yciQptnfh-WioT-11" value="Accept" style="text;html=1;align=center;verticalAlign=middle;whiteSpace=wrap;rounded=0;" parent="aBFbH0yciQptnfh-WioT-9" vertex="1">
          <mxGeometry y="30" width="57.5" height="30" as="geometry" />
        </mxCell>
        <mxCell id="aBFbH0yciQptnfh-WioT-12" value="" style="endArrow=none;html=1;rounded=0;" parent="aBFbH0yciQptnfh-WioT-9" edge="1">
          <mxGeometry width="50" height="50" relative="1" as="geometry">
            <mxPoint x="420" y="60" as="sourcePoint" />
            <mxPoint x="440" y="60" as="targetPoint" />
          </mxGeometry>
        </mxCell>
        <mxCell id="aBFbH0yciQptnfh-WioT-13" value="" style="endArrow=none;html=1;rounded=0;" parent="aBFbH0yciQptnfh-WioT-9" edge="1">
          <mxGeometry width="50" height="50" relative="1" as="geometry">
            <mxPoint x="440" y="90" as="sourcePoint" />
            <mxPoint x="440" y="60" as="targetPoint" />
          </mxGeometry>
        </mxCell>
        <mxCell id="aBFbH0yciQptnfh-WioT-14" value="" style="endArrow=classic;html=1;rounded=0;entryX=1.089;entryY=0.395;entryDx=0;entryDy=0;entryPerimeter=0;" parent="aBFbH0yciQptnfh-WioT-9" edge="1">
          <mxGeometry width="50" height="50" relative="1" as="geometry">
            <mxPoint x="440" y="90" as="sourcePoint" />
            <mxPoint x="422.94500000000005" y="90.60000000000002" as="targetPoint" />
          </mxGeometry>
        </mxCell>
        <mxCell id="aBFbH0yciQptnfh-WioT-15" value="Update data" style="text;html=1;align=center;verticalAlign=middle;whiteSpace=wrap;rounded=0;" parent="aBFbH0yciQptnfh-WioT-9" vertex="1">
          <mxGeometry x="440" y="60" width="60" height="30" as="geometry" />
        </mxCell>
        <mxCell id="aBFbH0yciQptnfh-WioT-16" value="Unaccept" style="text;html=1;align=center;verticalAlign=middle;whiteSpace=wrap;rounded=0;" parent="aBFbH0yciQptnfh-WioT-9" vertex="1">
          <mxGeometry y="140" width="57.5" height="30" as="geometry" />
        </mxCell>
        <mxCell id="aBFbH0yciQptnfh-WioT-17" value="" style="endArrow=none;html=1;rounded=0;exitX=0;exitY=1;exitDx=0;exitDy=0;entryX=1;entryY=1;entryDx=0;entryDy=0;" parent="aBFbH0yciQptnfh-WioT-9" source="aBFbH0yciQptnfh-WioT-11" target="aBFbH0yciQptnfh-WioT-11" edge="1">
          <mxGeometry width="50" height="50" relative="1" as="geometry">
            <mxPoint x="200" y="20" as="sourcePoint" />
            <mxPoint x="250" y="-30" as="targetPoint" />
          </mxGeometry>
        </mxCell>
        <mxCell id="aBFbH0yciQptnfh-WioT-18" value="" style="endArrow=none;html=1;rounded=0;exitX=0;exitY=1;exitDx=0;exitDy=0;entryX=1;entryY=1;entryDx=0;entryDy=0;" parent="aBFbH0yciQptnfh-WioT-9" edge="1">
          <mxGeometry width="50" height="50" relative="1" as="geometry">
            <mxPoint x="-0.5" y="180" as="sourcePoint" />
            <mxPoint x="57.5" y="180" as="targetPoint" />
          </mxGeometry>
        </mxCell>
        <mxCell id="aBFbH0yciQptnfh-WioT-19" value="" style="endArrow=classic;html=1;rounded=0;" parent="aBFbH0yciQptnfh-WioT-9" edge="1">
          <mxGeometry width="50" height="50" relative="1" as="geometry">
            <mxPoint x="245" y="60" as="sourcePoint" />
            <mxPoint x="410" y="60" as="targetPoint" />
          </mxGeometry>
        </mxCell>
        <mxCell id="aBFbH0yciQptnfh-WioT-20" value="Accept Request" style="edgeLabel;html=1;align=center;verticalAlign=middle;resizable=0;points=[];" parent="aBFbH0yciQptnfh-WioT-19" vertex="1" connectable="0">
          <mxGeometry x="0.0213" y="-1" relative="1" as="geometry">
            <mxPoint as="offset" />
          </mxGeometry>
        </mxCell>
        <mxCell id="aBFbH0yciQptnfh-WioT-21" value="" style="endArrow=classic;html=1;rounded=0;" parent="aBFbH0yciQptnfh-WioT-9" edge="1">
          <mxGeometry width="50" height="50" relative="1" as="geometry">
            <mxPoint x="245" y="180" as="sourcePoint" />
            <mxPoint x="410" y="180" as="targetPoint" />
          </mxGeometry>
        </mxCell>
        <mxCell id="aBFbH0yciQptnfh-WioT-22" value="Decline Request" style="edgeLabel;html=1;align=center;verticalAlign=middle;resizable=0;points=[];" parent="aBFbH0yciQptnfh-WioT-21" vertex="1" connectable="0">
          <mxGeometry x="0.0141" y="-1" relative="1" as="geometry">
            <mxPoint as="offset" />
          </mxGeometry>
        </mxCell>
        <mxCell id="aBFbH0yciQptnfh-WioT-23" value="&lt;b&gt;Request Consideration&lt;/b&gt;" style="text;html=1;align=center;verticalAlign=middle;whiteSpace=wrap;rounded=0;" parent="aBFbH0yciQptnfh-WioT-9" vertex="1">
          <mxGeometry x="157.5" width="170" height="30" as="geometry" />
        </mxCell>
      </root>
    </mxGraphModel>
  </diagram>
  <diagram id="lKCNL0MOvb4kAgqTXh_t" name="Create Group (For Users)">
    <mxGraphModel dx="875" dy="435" grid="1" gridSize="10" guides="1" tooltips="1" connect="1" arrows="1" fold="1" page="1" pageScale="1" pageWidth="827" pageHeight="1169" math="0" shadow="0">
      <root>
        <mxCell id="0" />
        <mxCell id="1" parent="0" />
        <mxCell id="FGAzzm6slIUvDuCATRG_-1" value="Users" style="shape=umlActor;verticalLabelPosition=bottom;verticalAlign=top;html=1;outlineConnect=0;" parent="1" vertex="1">
          <mxGeometry x="320" y="160" width="40" height="70" as="geometry" />
        </mxCell>
        <mxCell id="FGAzzm6slIUvDuCATRG_-2" value="System" style="rounded=0;whiteSpace=wrap;html=1;" parent="1" vertex="1">
          <mxGeometry x="637.5" y="155" width="120" height="80" as="geometry" />
        </mxCell>
        <mxCell id="FGAzzm6slIUvDuCATRG_-3" value="" style="endArrow=none;dashed=1;html=1;dashPattern=1 3;strokeWidth=2;rounded=0;" parent="1" edge="1">
          <mxGeometry width="50" height="50" relative="1" as="geometry">
            <mxPoint x="340" y="320" as="sourcePoint" />
            <mxPoint x="339.5" y="260" as="targetPoint" />
          </mxGeometry>
        </mxCell>
        <mxCell id="FGAzzm6slIUvDuCATRG_-4" value="" style="endArrow=none;dashed=1;html=1;dashPattern=1 3;strokeWidth=2;rounded=0;entryX=0.5;entryY=1;entryDx=0;entryDy=0;exitX=0.5;exitY=0;exitDx=0;exitDy=0;" parent="1" target="FGAzzm6slIUvDuCATRG_-2" edge="1" source="6pqizhF3H3g16qnYTwih-3">
          <mxGeometry width="50" height="50" relative="1" as="geometry">
            <mxPoint x="700" y="320" as="sourcePoint" />
            <mxPoint x="579.58" y="260" as="targetPoint" />
          </mxGeometry>
        </mxCell>
        <mxCell id="6pqizhF3H3g16qnYTwih-1" value="" style="rounded=0;whiteSpace=wrap;html=1;" parent="1" vertex="1">
          <mxGeometry x="337.5" y="320" width="5" height="200" as="geometry" />
        </mxCell>
        <mxCell id="6pqizhF3H3g16qnYTwih-3" value="" style="rounded=0;whiteSpace=wrap;html=1;" parent="1" vertex="1">
          <mxGeometry x="695" y="320" width="5" height="200" as="geometry" />
        </mxCell>
        <mxCell id="6RdiVaNygGBLmoHvTBZ_-1" value="&lt;b&gt;&lt;font style=&quot;font-size: 16px;&quot;&gt;Create Group&amp;nbsp;&lt;/font&gt;&lt;/b&gt;&lt;div&gt;&lt;b&gt;&lt;font style=&quot;font-size: 16px;&quot;&gt;(For User)&lt;/font&gt;&lt;/b&gt;&lt;/div&gt;" style="text;html=1;align=center;verticalAlign=middle;whiteSpace=wrap;rounded=0;fillColor=#fff2cc;strokeColor=#d6b656;" parent="1" vertex="1">
          <mxGeometry x="460" y="80" width="190" height="40" as="geometry" />
        </mxCell>
        <mxCell id="6RdiVaNygGBLmoHvTBZ_-2" value="" style="endArrow=classic;html=1;rounded=0;" parent="1" edge="1">
          <mxGeometry width="50" height="50" relative="1" as="geometry">
            <mxPoint x="340" y="360" as="sourcePoint" />
            <mxPoint x="690" y="360" as="targetPoint" />
            <Array as="points">
              <mxPoint x="390" y="360" />
            </Array>
          </mxGeometry>
        </mxCell>
        <mxCell id="6RdiVaNygGBLmoHvTBZ_-3" value="Create group" style="edgeLabel;html=1;align=center;verticalAlign=middle;resizable=0;points=[];" parent="6RdiVaNygGBLmoHvTBZ_-2" vertex="1" connectable="0">
          <mxGeometry relative="1" as="geometry">
            <mxPoint as="offset" />
          </mxGeometry>
        </mxCell>
        <mxCell id="6RdiVaNygGBLmoHvTBZ_-4" value="" style="endArrow=classic;html=1;rounded=0;" parent="1" edge="1">
          <mxGeometry width="50" height="50" relative="1" as="geometry">
            <mxPoint x="350" y="400" as="sourcePoint" />
            <mxPoint x="690" y="400" as="targetPoint" />
          </mxGeometry>
        </mxCell>
        <mxCell id="6RdiVaNygGBLmoHvTBZ_-5" value="&lt;font style=&quot;font-size: 9px;&quot;&gt;Set up group name &amp;amp; description&lt;/font&gt;" style="edgeLabel;html=1;align=center;verticalAlign=middle;resizable=0;points=[];" parent="6RdiVaNygGBLmoHvTBZ_-4" vertex="1" connectable="0">
          <mxGeometry relative="1" as="geometry">
            <mxPoint as="offset" />
          </mxGeometry>
        </mxCell>
        <mxCell id="kjwMCKJpaHopLrbBiiwK-1" value="" style="endArrow=none;html=1;rounded=0;" parent="1" edge="1">
          <mxGeometry width="50" height="50" relative="1" as="geometry">
            <mxPoint x="700" y="400" as="sourcePoint" />
            <mxPoint x="720" y="400" as="targetPoint" />
          </mxGeometry>
        </mxCell>
        <mxCell id="kjwMCKJpaHopLrbBiiwK-2" value="" style="endArrow=classic;html=1;rounded=0;entryX=1.089;entryY=0.395;entryDx=0;entryDy=0;entryPerimeter=0;" parent="1" edge="1">
          <mxGeometry width="50" height="50" relative="1" as="geometry">
            <mxPoint x="720" y="430" as="sourcePoint" />
            <mxPoint x="702.945" y="430.6" as="targetPoint" />
          </mxGeometry>
        </mxCell>
        <mxCell id="kjwMCKJpaHopLrbBiiwK-3" value="Update data" style="text;html=1;align=center;verticalAlign=middle;whiteSpace=wrap;rounded=0;" parent="1" vertex="1">
          <mxGeometry x="720" y="400" width="60" height="30" as="geometry" />
        </mxCell>
        <mxCell id="k17V8m7urtDsa99HFcJy-1" value="" style="endArrow=none;html=1;rounded=0;" parent="1" edge="1">
          <mxGeometry width="50" height="50" relative="1" as="geometry">
            <mxPoint x="720" y="430" as="sourcePoint" />
            <mxPoint x="720" y="400" as="targetPoint" />
          </mxGeometry>
        </mxCell>
        <mxCell id="k17V8m7urtDsa99HFcJy-2" value="" style="shape=flexArrow;endArrow=classic;html=1;rounded=0;entryX=1.3;entryY=0.598;entryDx=0;entryDy=0;entryPerimeter=0;" parent="1" edge="1" target="6pqizhF3H3g16qnYTwih-1">
          <mxGeometry width="50" height="50" relative="1" as="geometry">
            <mxPoint x="690" y="440" as="sourcePoint" />
            <mxPoint x="350" y="440" as="targetPoint" />
          </mxGeometry>
        </mxCell>
        <mxCell id="k17V8m7urtDsa99HFcJy-3" value="Group created" style="edgeLabel;html=1;align=center;verticalAlign=middle;resizable=0;points=[];" parent="k17V8m7urtDsa99HFcJy-2" vertex="1" connectable="0">
          <mxGeometry x="-0.0706" y="2" relative="1" as="geometry">
            <mxPoint x="-1" y="-2" as="offset" />
          </mxGeometry>
        </mxCell>
        <mxCell id="k17V8m7urtDsa99HFcJy-4" value="" style="shape=flexArrow;endArrow=classic;html=1;rounded=0;" parent="1" edge="1">
          <mxGeometry width="50" height="50" relative="1" as="geometry">
            <mxPoint x="690" y="480" as="sourcePoint" />
            <mxPoint x="342.5" y="480" as="targetPoint" />
          </mxGeometry>
        </mxCell>
        <mxCell id="k17V8m7urtDsa99HFcJy-5" value="Show group created" style="edgeLabel;html=1;align=center;verticalAlign=middle;resizable=0;points=[];" parent="k17V8m7urtDsa99HFcJy-4" vertex="1" connectable="0">
          <mxGeometry x="-0.0706" y="2" relative="1" as="geometry">
            <mxPoint x="-1" y="-2" as="offset" />
          </mxGeometry>
        </mxCell>
      </root>
    </mxGraphModel>
  </diagram>
  <diagram id="0uYaErLtx7wBUVt2orDA" name="Browse General Library (For Users))">
    <mxGraphModel dx="1050" dy="522" grid="1" gridSize="10" guides="1" tooltips="1" connect="1" arrows="1" fold="1" page="1" pageScale="1" pageWidth="827" pageHeight="1169" math="0" shadow="0">
      <root>
        <mxCell id="0" />
        <mxCell id="1" parent="0" />
        <mxCell id="t9MSwEpMkw4nHBkxUgB_-1" value="Users" style="shape=umlActor;verticalLabelPosition=bottom;verticalAlign=top;html=1;outlineConnect=0;" parent="1" vertex="1">
          <mxGeometry x="320" y="160" width="40" height="70" as="geometry" />
        </mxCell>
        <mxCell id="t9MSwEpMkw4nHBkxUgB_-2" value="System" style="rounded=0;whiteSpace=wrap;html=1;" parent="1" vertex="1">
          <mxGeometry x="520" y="160" width="120" height="80" as="geometry" />
        </mxCell>
        <mxCell id="t9MSwEpMkw4nHBkxUgB_-3" value="" style="endArrow=none;dashed=1;html=1;dashPattern=1 3;strokeWidth=2;rounded=0;" parent="1" edge="1">
          <mxGeometry width="50" height="50" relative="1" as="geometry">
            <mxPoint x="340" y="320" as="sourcePoint" />
            <mxPoint x="339.5" y="260" as="targetPoint" />
          </mxGeometry>
        </mxCell>
        <mxCell id="t9MSwEpMkw4nHBkxUgB_-4" value="" style="endArrow=none;dashed=1;html=1;dashPattern=1 3;strokeWidth=2;rounded=0;entryX=0.5;entryY=1;entryDx=0;entryDy=0;" parent="1" target="t9MSwEpMkw4nHBkxUgB_-2" edge="1">
          <mxGeometry width="50" height="50" relative="1" as="geometry">
            <mxPoint x="580" y="320" as="sourcePoint" />
            <mxPoint x="579.58" y="260" as="targetPoint" />
          </mxGeometry>
        </mxCell>
        <mxCell id="t9MSwEpMkw4nHBkxUgB_-5" value="" style="endArrow=classic;html=1;rounded=0;exitX=0.913;exitY=0.167;exitDx=0;exitDy=0;exitPerimeter=0;entryX=0.5;entryY=0.167;entryDx=0;entryDy=0;entryPerimeter=0;" parent="1" edge="1">
          <mxGeometry width="50" height="50" relative="1" as="geometry">
            <mxPoint x="342" y="367" as="sourcePoint" />
            <mxPoint x="580" y="367" as="targetPoint" />
          </mxGeometry>
        </mxCell>
        <mxCell id="t9MSwEpMkw4nHBkxUgB_-6" value="Enter General Library" style="edgeLabel;html=1;align=center;verticalAlign=middle;resizable=0;points=[];" parent="t9MSwEpMkw4nHBkxUgB_-5" vertex="1" connectable="0">
          <mxGeometry x="-0.0226" y="1" relative="1" as="geometry">
            <mxPoint as="offset" />
          </mxGeometry>
        </mxCell>
        <mxCell id="t9MSwEpMkw4nHBkxUgB_-7" value="" style="shape=flexArrow;endArrow=classic;html=1;rounded=0;entryX=1;entryY=0.75;entryDx=0;entryDy=0;exitX=0;exitY=0.75;exitDx=0;exitDy=0;" parent="1" edge="1">
          <mxGeometry width="50" height="50" relative="1" as="geometry">
            <mxPoint x="577.5" y="400" as="sourcePoint" />
            <mxPoint x="342.5" y="400" as="targetPoint" />
          </mxGeometry>
        </mxCell>
        <mxCell id="t9MSwEpMkw4nHBkxUgB_-8" value="&lt;font style=&quot;font-size: 9px;&quot;&gt;Show Resources in General Library&lt;/font&gt;" style="edgeLabel;html=1;align=center;verticalAlign=middle;resizable=0;points=[];" parent="t9MSwEpMkw4nHBkxUgB_-7" vertex="1" connectable="0">
          <mxGeometry x="0.0165" y="-1" relative="1" as="geometry">
            <mxPoint as="offset" />
          </mxGeometry>
        </mxCell>
        <mxCell id="t9MSwEpMkw4nHBkxUgB_-12" value="&lt;b&gt;&lt;font style=&quot;font-size: 16px;&quot;&gt;Browse General Library&lt;/font&gt;&lt;/b&gt;&lt;div&gt;&lt;b&gt;&lt;font style=&quot;font-size: 16px;&quot;&gt;(For User)&lt;/font&gt;&lt;/b&gt;&lt;/div&gt;" style="text;html=1;align=center;verticalAlign=middle;whiteSpace=wrap;rounded=0;fillColor=#fff2cc;strokeColor=#d6b656;" parent="1" vertex="1">
          <mxGeometry x="360" y="40" width="200" height="80" as="geometry" />
        </mxCell>
        <mxCell id="t9MSwEpMkw4nHBkxUgB_-13" value="" style="rounded=0;whiteSpace=wrap;html=1;" parent="1" vertex="1">
          <mxGeometry x="337.5" y="320" width="5" height="120" as="geometry" />
        </mxCell>
        <mxCell id="t9MSwEpMkw4nHBkxUgB_-14" value="" style="rounded=0;whiteSpace=wrap;html=1;" parent="1" vertex="1">
          <mxGeometry x="577.5" y="320" width="5" height="120" as="geometry" />
        </mxCell>
      </root>
    </mxGraphModel>
  </diagram>
  <diagram id="Yq3GfAKWp2824WJ6piSj" name="Share Resource from General Library (For User)">
    <mxGraphModel dx="1050" dy="522" grid="1" gridSize="10" guides="1" tooltips="1" connect="1" arrows="1" fold="1" page="1" pageScale="1" pageWidth="827" pageHeight="1169" math="0" shadow="0">
      <root>
        <mxCell id="0" />
        <mxCell id="1" parent="0" />
        <mxCell id="iUfAJXN3k3l9gNI0mEVB-1" value="Users" style="shape=umlActor;verticalLabelPosition=bottom;verticalAlign=top;html=1;outlineConnect=0;" parent="1" vertex="1">
          <mxGeometry x="320" y="160" width="40" height="70" as="geometry" />
        </mxCell>
        <mxCell id="iUfAJXN3k3l9gNI0mEVB-2" value="System" style="rounded=0;whiteSpace=wrap;html=1;" parent="1" vertex="1">
          <mxGeometry x="720" y="160" width="120" height="80" as="geometry" />
        </mxCell>
        <mxCell id="iUfAJXN3k3l9gNI0mEVB-3" value="" style="endArrow=none;dashed=1;html=1;dashPattern=1 3;strokeWidth=2;rounded=0;" parent="1" edge="1">
          <mxGeometry width="50" height="50" relative="1" as="geometry">
            <mxPoint x="340" y="320" as="sourcePoint" />
            <mxPoint x="339.5" y="260" as="targetPoint" />
          </mxGeometry>
        </mxCell>
        <mxCell id="iUfAJXN3k3l9gNI0mEVB-4" value="" style="endArrow=none;dashed=1;html=1;dashPattern=1 3;strokeWidth=2;rounded=0;entryX=0.5;entryY=1;entryDx=0;entryDy=0;" parent="1" target="iUfAJXN3k3l9gNI0mEVB-2" edge="1">
          <mxGeometry width="50" height="50" relative="1" as="geometry">
            <mxPoint x="780" y="320" as="sourcePoint" />
            <mxPoint x="779.58" y="260" as="targetPoint" />
          </mxGeometry>
        </mxCell>
        <mxCell id="iUfAJXN3k3l9gNI0mEVB-5" value="" style="endArrow=classic;html=1;rounded=0;exitX=1.636;exitY=0.122;exitDx=0;exitDy=0;exitPerimeter=0;" parent="1" source="iUfAJXN3k3l9gNI0mEVB-10" edge="1">
          <mxGeometry width="50" height="50" relative="1" as="geometry">
            <mxPoint x="342" y="367" as="sourcePoint" />
            <mxPoint x="770" y="360" as="targetPoint" />
          </mxGeometry>
        </mxCell>
        <mxCell id="iUfAJXN3k3l9gNI0mEVB-7" value="" style="shape=flexArrow;endArrow=classic;html=1;rounded=0;entryX=1;entryY=0.75;entryDx=0;entryDy=0;" parent="1" edge="1">
          <mxGeometry width="50" height="50" relative="1" as="geometry">
            <mxPoint x="770" y="400" as="sourcePoint" />
            <mxPoint x="342.5" y="400" as="targetPoint" />
          </mxGeometry>
        </mxCell>
        <mxCell id="iUfAJXN3k3l9gNI0mEVB-9" value="&lt;b&gt;&lt;font style=&quot;font-size: 16px;&quot;&gt;Share Resource from General Library&lt;/font&gt;&lt;/b&gt;&lt;div&gt;&lt;b&gt;&lt;font style=&quot;font-size: 16px;&quot;&gt;(For User)&lt;/font&gt;&lt;/b&gt;&lt;/div&gt;" style="text;html=1;align=center;verticalAlign=middle;whiteSpace=wrap;rounded=0;fillColor=#fff2cc;strokeColor=#d6b656;" parent="1" vertex="1">
          <mxGeometry x="440" y="40" width="200" height="80" as="geometry" />
        </mxCell>
        <mxCell id="iUfAJXN3k3l9gNI0mEVB-10" value="" style="rounded=0;whiteSpace=wrap;html=1;" parent="1" vertex="1">
          <mxGeometry x="337.5" y="320" width="5" height="320" as="geometry" />
        </mxCell>
        <mxCell id="iUfAJXN3k3l9gNI0mEVB-11" value="" style="rounded=0;whiteSpace=wrap;html=1;" parent="1" vertex="1">
          <mxGeometry x="777.5" y="320" width="5" height="320" as="geometry" />
        </mxCell>
        <mxCell id="iUfAJXN3k3l9gNI0mEVB-15" value="Enter General Library" style="edgeLabel;html=1;align=center;verticalAlign=middle;resizable=0;points=[];" parent="1" vertex="1" connectable="0">
          <mxGeometry x="560.0006135177961" y="359.9994057686057" as="geometry" />
        </mxCell>
        <mxCell id="iUfAJXN3k3l9gNI0mEVB-16" value="&lt;font style=&quot;font-size: 9px;&quot;&gt;Show Resources in General Library&lt;/font&gt;" style="edgeLabel;html=1;align=center;verticalAlign=middle;resizable=0;points=[];" parent="1" vertex="1" connectable="0">
          <mxGeometry x="560.0029411764707" y="400" as="geometry" />
        </mxCell>
        <mxCell id="iUfAJXN3k3l9gNI0mEVB-17" value="" style="endArrow=classic;html=1;rounded=0;exitX=2.041;exitY=0.139;exitDx=0;exitDy=0;exitPerimeter=0;" parent="1" edge="1">
          <mxGeometry width="50" height="50" relative="1" as="geometry">
            <mxPoint x="342.5" y="440" as="sourcePoint" />
            <mxPoint x="764.5" y="441" as="targetPoint" />
          </mxGeometry>
        </mxCell>
        <mxCell id="iUfAJXN3k3l9gNI0mEVB-18" value="Clcik share resources" style="edgeLabel;html=1;align=center;verticalAlign=middle;resizable=0;points=[];" parent="1" vertex="1" connectable="0">
          <mxGeometry x="554.5006135177961" y="440.9994057686057" as="geometry" />
        </mxCell>
        <mxCell id="iUfAJXN3k3l9gNI0mEVB-19" value="" style="shape=flexArrow;endArrow=classic;html=1;rounded=0;entryX=1;entryY=0.75;entryDx=0;entryDy=0;" parent="1" edge="1">
          <mxGeometry width="50" height="50" relative="1" as="geometry">
            <mxPoint x="768.25" y="480" as="sourcePoint" />
            <mxPoint x="340.75" y="480" as="targetPoint" />
          </mxGeometry>
        </mxCell>
        <mxCell id="iUfAJXN3k3l9gNI0mEVB-20" value="&lt;font style=&quot;font-size: 9px;&quot;&gt;Request sharing destination&lt;/font&gt;" style="edgeLabel;html=1;align=center;verticalAlign=middle;resizable=0;points=[];" parent="1" vertex="1" connectable="0">
          <mxGeometry x="560.0029411764707" y="480" as="geometry" />
        </mxCell>
        <mxCell id="iUfAJXN3k3l9gNI0mEVB-21" value="" style="endArrow=classic;html=1;rounded=0;exitX=2.041;exitY=0.139;exitDx=0;exitDy=0;exitPerimeter=0;" parent="1" edge="1">
          <mxGeometry width="50" height="50" relative="1" as="geometry">
            <mxPoint x="343.5" y="520" as="sourcePoint" />
            <mxPoint x="765.5" y="521" as="targetPoint" />
          </mxGeometry>
        </mxCell>
        <mxCell id="iUfAJXN3k3l9gNI0mEVB-22" value="Provide destination" style="edgeLabel;html=1;align=center;verticalAlign=middle;resizable=0;points=[];" parent="1" vertex="1" connectable="0">
          <mxGeometry x="555.5006135177961" y="520.9994057686057" as="geometry" />
        </mxCell>
        <mxCell id="iUfAJXN3k3l9gNI0mEVB-23" value="" style="shape=flexArrow;endArrow=classic;html=1;rounded=0;" parent="1" edge="1">
          <mxGeometry width="50" height="50" relative="1" as="geometry">
            <mxPoint x="777.5" y="560" as="sourcePoint" />
            <mxPoint x="350" y="560" as="targetPoint" />
          </mxGeometry>
        </mxCell>
        <mxCell id="iUfAJXN3k3l9gNI0mEVB-24" value="&lt;font style=&quot;font-size: 9px;&quot;&gt;Share resources to group&lt;/font&gt;" style="edgeLabel;html=1;align=center;verticalAlign=middle;resizable=0;points=[];" parent="1" vertex="1" connectable="0">
          <mxGeometry x="560.0029411764707" y="560" as="geometry">
            <mxPoint x="-1" y="-3" as="offset" />
          </mxGeometry>
        </mxCell>
        <mxCell id="iUfAJXN3k3l9gNI0mEVB-28" value="" style="shape=flexArrow;endArrow=classic;html=1;rounded=0;exitX=0.5;exitY=0.875;exitDx=0;exitDy=0;exitPerimeter=0;" parent="1" edge="1" source="iUfAJXN3k3l9gNI0mEVB-11">
          <mxGeometry width="50" height="50" relative="1" as="geometry">
            <mxPoint x="550" y="600" as="sourcePoint" />
            <mxPoint x="342.5" y="600" as="targetPoint" />
          </mxGeometry>
        </mxCell>
        <mxCell id="iUfAJXN3k3l9gNI0mEVB-29" value="&lt;font style=&quot;font-size: 9px;&quot;&gt;Show shared successfully&lt;/font&gt;" style="edgeLabel;html=1;align=center;verticalAlign=middle;resizable=0;points=[];" parent="1" vertex="1" connectable="0">
          <mxGeometry x="560.0029411764707" y="600" as="geometry">
            <mxPoint x="-1" y="-3" as="offset" />
          </mxGeometry>
        </mxCell>
      </root>
    </mxGraphModel>
  </diagram>
  <diagram id="jkFwC2j3_DS6jM1-mdrt" name="Share Post (For Users)">
    <mxGraphModel dx="1050" dy="522" grid="1" gridSize="10" guides="1" tooltips="1" connect="1" arrows="1" fold="1" page="1" pageScale="1" pageWidth="827" pageHeight="1169" math="0" shadow="0">
      <root>
        <mxCell id="0" />
        <mxCell id="1" parent="0" />
        <mxCell id="QN6DtbKznKc7saDuikTh-1" value="Users" style="shape=umlActor;verticalLabelPosition=bottom;verticalAlign=top;html=1;outlineConnect=0;" parent="1" vertex="1">
          <mxGeometry x="320" y="160" width="40" height="70" as="geometry" />
        </mxCell>
        <mxCell id="QN6DtbKznKc7saDuikTh-2" value="System" style="rounded=0;whiteSpace=wrap;html=1;" parent="1" vertex="1">
          <mxGeometry x="720" y="160" width="120" height="80" as="geometry" />
        </mxCell>
        <mxCell id="QN6DtbKznKc7saDuikTh-3" value="" style="endArrow=none;dashed=1;html=1;dashPattern=1 3;strokeWidth=2;rounded=0;" parent="1" edge="1">
          <mxGeometry width="50" height="50" relative="1" as="geometry">
            <mxPoint x="340" y="320" as="sourcePoint" />
            <mxPoint x="339.5" y="260" as="targetPoint" />
          </mxGeometry>
        </mxCell>
        <mxCell id="QN6DtbKznKc7saDuikTh-4" value="" style="endArrow=none;dashed=1;html=1;dashPattern=1 3;strokeWidth=2;rounded=0;entryX=0.5;entryY=1;entryDx=0;entryDy=0;" parent="1" target="QN6DtbKznKc7saDuikTh-2" edge="1">
          <mxGeometry width="50" height="50" relative="1" as="geometry">
            <mxPoint x="780" y="320" as="sourcePoint" />
            <mxPoint x="779.58" y="260" as="targetPoint" />
          </mxGeometry>
        </mxCell>
        <mxCell id="QN6DtbKznKc7saDuikTh-5" value="" style="endArrow=classic;html=1;rounded=0;" parent="1" edge="1">
          <mxGeometry width="50" height="50" relative="1" as="geometry">
            <mxPoint x="350" y="360" as="sourcePoint" />
            <mxPoint x="770" y="360" as="targetPoint" />
          </mxGeometry>
        </mxCell>
        <mxCell id="QN6DtbKznKc7saDuikTh-6" value="" style="shape=flexArrow;endArrow=classic;html=1;rounded=0;entryX=1;entryY=0.75;entryDx=0;entryDy=0;" parent="1" edge="1">
          <mxGeometry width="50" height="50" relative="1" as="geometry">
            <mxPoint x="770" y="400" as="sourcePoint" />
            <mxPoint x="342.5" y="400" as="targetPoint" />
          </mxGeometry>
        </mxCell>
        <mxCell id="QN6DtbKznKc7saDuikTh-7" value="&lt;b&gt;&lt;font style=&quot;font-size: 16px;&quot;&gt;Share Post&lt;/font&gt;&lt;/b&gt;&lt;div&gt;&lt;b&gt;&lt;font style=&quot;font-size: 16px;&quot;&gt;(For User)&lt;/font&gt;&lt;/b&gt;&lt;/div&gt;" style="text;html=1;align=center;verticalAlign=middle;whiteSpace=wrap;rounded=0;fillColor=#fff2cc;strokeColor=#d6b656;" parent="1" vertex="1">
          <mxGeometry x="440" y="40" width="200" height="80" as="geometry" />
        </mxCell>
        <mxCell id="QN6DtbKznKc7saDuikTh-8" value="" style="rounded=0;whiteSpace=wrap;html=1;" parent="1" vertex="1">
          <mxGeometry x="337.5" y="320" width="5" height="240" as="geometry" />
        </mxCell>
        <mxCell id="QN6DtbKznKc7saDuikTh-9" value="" style="rounded=0;whiteSpace=wrap;html=1;" parent="1" vertex="1">
          <mxGeometry x="777.5" y="320" width="5" height="240" as="geometry" />
        </mxCell>
        <mxCell id="QN6DtbKznKc7saDuikTh-12" value="Click share post" style="edgeLabel;html=1;align=center;verticalAlign=middle;resizable=0;points=[];" parent="1" vertex="1" connectable="0">
          <mxGeometry x="560.0006135177961" y="359.9994057686057" as="geometry" />
        </mxCell>
        <mxCell id="QN6DtbKznKc7saDuikTh-13" value="&lt;font size=&quot;1&quot;&gt;Request sharing destination&lt;/font&gt;" style="edgeLabel;html=1;align=center;verticalAlign=middle;resizable=0;points=[];" parent="1" vertex="1" connectable="0">
          <mxGeometry x="560.0029411764707" y="400" as="geometry" />
        </mxCell>
        <mxCell id="QN6DtbKznKc7saDuikTh-18" value="" style="endArrow=classic;html=1;rounded=0;exitX=2.041;exitY=0.139;exitDx=0;exitDy=0;exitPerimeter=0;" parent="1" edge="1">
          <mxGeometry width="50" height="50" relative="1" as="geometry">
            <mxPoint x="342.5" y="440" as="sourcePoint" />
            <mxPoint x="764.5" y="441" as="targetPoint" />
          </mxGeometry>
        </mxCell>
        <mxCell id="QN6DtbKznKc7saDuikTh-19" value="Provide destination" style="edgeLabel;html=1;align=center;verticalAlign=middle;resizable=0;points=[];" parent="1" vertex="1" connectable="0">
          <mxGeometry x="554.5006135177961" y="440.9994057686057" as="geometry" />
        </mxCell>
        <mxCell id="QN6DtbKznKc7saDuikTh-20" value="" style="shape=flexArrow;endArrow=classic;html=1;rounded=0;entryX=1;entryY=0.75;entryDx=0;entryDy=0;" parent="1" edge="1" target="QN6DtbKznKc7saDuikTh-8">
          <mxGeometry width="50" height="50" relative="1" as="geometry">
            <mxPoint x="780" y="500" as="sourcePoint" />
            <mxPoint x="562.5" y="500" as="targetPoint" />
          </mxGeometry>
        </mxCell>
        <mxCell id="QN6DtbKznKc7saDuikTh-21" value="&lt;font style=&quot;font-size: 9px;&quot;&gt;Share post to group&lt;/font&gt;" style="edgeLabel;html=1;align=center;verticalAlign=middle;resizable=0;points=[];" parent="1" vertex="1" connectable="0">
          <mxGeometry x="554.5029411764707" y="500" as="geometry">
            <mxPoint x="-2" y="-1" as="offset" />
          </mxGeometry>
        </mxCell>
        <mxCell id="QN6DtbKznKc7saDuikTh-23" value="" style="shape=flexArrow;endArrow=classic;html=1;rounded=0;exitX=-0.483;exitY=0.854;exitDx=0;exitDy=0;exitPerimeter=0;" parent="1" edge="1" source="QN6DtbKznKc7saDuikTh-9">
          <mxGeometry width="50" height="50" relative="1" as="geometry">
            <mxPoint x="554.5" y="524.41" as="sourcePoint" />
            <mxPoint x="347" y="524.41" as="targetPoint" />
          </mxGeometry>
        </mxCell>
        <mxCell id="QN6DtbKznKc7saDuikTh-24" value="&lt;font style=&quot;font-size: 9px;&quot;&gt;Show post successfully&lt;/font&gt;" style="edgeLabel;html=1;align=center;verticalAlign=middle;resizable=0;points=[];" parent="1" vertex="1" connectable="0">
          <mxGeometry x="560.0029411764707" y="530" as="geometry">
            <mxPoint x="-1" y="-3" as="offset" />
          </mxGeometry>
        </mxCell>
      </root>
    </mxGraphModel>
  </diagram>
  <diagram id="MKr2nsUqYWmdLex34mfc" name="Like Post (For Users)">
    <mxGraphModel dx="1235" dy="614" grid="1" gridSize="10" guides="1" tooltips="1" connect="1" arrows="1" fold="1" page="1" pageScale="1" pageWidth="827" pageHeight="1169" math="0" shadow="0">
      <root>
        <mxCell id="0" />
        <mxCell id="1" parent="0" />
        <mxCell id="fmid_au7C9tkOWGoQfRK-1" value="System" style="rounded=0;whiteSpace=wrap;html=1;" parent="1" vertex="1">
          <mxGeometry x="720" y="160" width="120" height="80" as="geometry" />
        </mxCell>
        <mxCell id="fmid_au7C9tkOWGoQfRK-2" value="" style="endArrow=none;dashed=1;html=1;dashPattern=1 3;strokeWidth=2;rounded=0;" parent="1" edge="1">
          <mxGeometry width="50" height="50" relative="1" as="geometry">
            <mxPoint x="340" y="320" as="sourcePoint" />
            <mxPoint x="339.5" y="260" as="targetPoint" />
          </mxGeometry>
        </mxCell>
        <mxCell id="fmid_au7C9tkOWGoQfRK-3" value="" style="endArrow=none;dashed=1;html=1;dashPattern=1 3;strokeWidth=2;rounded=0;entryX=0.5;entryY=1;entryDx=0;entryDy=0;" parent="1" target="fmid_au7C9tkOWGoQfRK-1" edge="1">
          <mxGeometry width="50" height="50" relative="1" as="geometry">
            <mxPoint x="780" y="320" as="sourcePoint" />
            <mxPoint x="779.58" y="260" as="targetPoint" />
          </mxGeometry>
        </mxCell>
        <mxCell id="fmid_au7C9tkOWGoQfRK-6" value="" style="rounded=0;whiteSpace=wrap;html=1;" parent="1" vertex="1">
          <mxGeometry x="337.5" y="320" width="5" height="240" as="geometry" />
        </mxCell>
        <mxCell id="fmid_au7C9tkOWGoQfRK-7" value="" style="rounded=0;whiteSpace=wrap;html=1;" parent="1" vertex="1">
          <mxGeometry x="777.5" y="320" width="5" height="240" as="geometry" />
        </mxCell>
        <mxCell id="QsA66GwEWDcHDy7UQqFi-1" value="Users" style="shape=umlActor;verticalLabelPosition=bottom;verticalAlign=top;html=1;outlineConnect=0;" parent="1" vertex="1">
          <mxGeometry x="320" y="160" width="40" height="70" as="geometry" />
        </mxCell>
        <mxCell id="QsA66GwEWDcHDy7UQqFi-2" value="&lt;b&gt;&lt;font style=&quot;font-size: 16px;&quot;&gt;Like Post&lt;/font&gt;&lt;/b&gt;&lt;div&gt;&lt;b&gt;&lt;font style=&quot;font-size: 16px;&quot;&gt;(For User)&lt;/font&gt;&lt;/b&gt;&lt;/div&gt;" style="text;html=1;align=center;verticalAlign=middle;whiteSpace=wrap;rounded=0;fillColor=#fff2cc;strokeColor=#d6b656;" parent="1" vertex="1">
          <mxGeometry x="450" y="50" width="200" height="80" as="geometry" />
        </mxCell>
        <mxCell id="QsA66GwEWDcHDy7UQqFi-3" value="" style="endArrow=classic;html=1;rounded=0;" parent="1" edge="1">
          <mxGeometry width="50" height="50" relative="1" as="geometry">
            <mxPoint x="350" y="360" as="sourcePoint" />
            <mxPoint x="770" y="360" as="targetPoint" />
          </mxGeometry>
        </mxCell>
        <mxCell id="QsA66GwEWDcHDy7UQqFi-6" value="Enter a group" style="edgeLabel;html=1;align=center;verticalAlign=middle;resizable=0;points=[];" parent="QsA66GwEWDcHDy7UQqFi-3" vertex="1" connectable="0">
          <mxGeometry x="-0.412" y="-1" relative="1" as="geometry">
            <mxPoint x="77" as="offset" />
          </mxGeometry>
        </mxCell>
        <mxCell id="QsA66GwEWDcHDy7UQqFi-5" value="" style="endArrow=classic;html=1;rounded=0;exitX=2.34;exitY=0.338;exitDx=0;exitDy=0;exitPerimeter=0;" parent="1" edge="1" source="fmid_au7C9tkOWGoQfRK-6">
          <mxGeometry width="50" height="50" relative="1" as="geometry">
            <mxPoint x="562.5" y="400" as="sourcePoint" />
            <mxPoint x="770" y="400" as="targetPoint" />
          </mxGeometry>
        </mxCell>
        <mxCell id="QsA66GwEWDcHDy7UQqFi-7" value="Like post" style="edgeLabel;html=1;align=center;verticalAlign=middle;resizable=0;points=[];" parent="QsA66GwEWDcHDy7UQqFi-5" vertex="1" connectable="0">
          <mxGeometry x="-0.0236" y="2" relative="1" as="geometry">
            <mxPoint as="offset" />
          </mxGeometry>
        </mxCell>
        <mxCell id="4zn2bzEABC_RKLp-WW-H-1" value="" style="endArrow=none;html=1;rounded=0;" parent="1" edge="1">
          <mxGeometry width="50" height="50" relative="1" as="geometry">
            <mxPoint x="782.5" y="400" as="sourcePoint" />
            <mxPoint x="802.5" y="400" as="targetPoint" />
          </mxGeometry>
        </mxCell>
        <mxCell id="4zn2bzEABC_RKLp-WW-H-2" value="" style="endArrow=classic;html=1;rounded=0;entryX=1.089;entryY=0.395;entryDx=0;entryDy=0;entryPerimeter=0;" parent="1" edge="1">
          <mxGeometry width="50" height="50" relative="1" as="geometry">
            <mxPoint x="802.5" y="430" as="sourcePoint" />
            <mxPoint x="785.445" y="430.6" as="targetPoint" />
          </mxGeometry>
        </mxCell>
        <mxCell id="4zn2bzEABC_RKLp-WW-H-3" value="Update data" style="text;html=1;align=center;verticalAlign=middle;whiteSpace=wrap;rounded=0;" parent="1" vertex="1">
          <mxGeometry x="802.5" y="400" width="60" height="30" as="geometry" />
        </mxCell>
        <mxCell id="4zn2bzEABC_RKLp-WW-H-4" value="" style="endArrow=none;html=1;rounded=0;" parent="1" edge="1">
          <mxGeometry width="50" height="50" relative="1" as="geometry">
            <mxPoint x="802.5" y="430" as="sourcePoint" />
            <mxPoint x="802.5" y="400" as="targetPoint" />
          </mxGeometry>
        </mxCell>
        <mxCell id="4zn2bzEABC_RKLp-WW-H-5" value="" style="shape=flexArrow;endArrow=classic;html=1;rounded=0;exitX=-0.277;exitY=0.661;exitDx=0;exitDy=0;exitPerimeter=0;entryX=0.5;entryY=0.585;entryDx=0;entryDy=0;entryPerimeter=0;" parent="1" target="fmid_au7C9tkOWGoQfRK-6" edge="1">
          <mxGeometry width="50" height="50" relative="1" as="geometry">
            <mxPoint x="777.495" y="460" as="sourcePoint" />
            <mxPoint x="351.38" y="460.36" as="targetPoint" />
          </mxGeometry>
        </mxCell>
        <mxCell id="4zn2bzEABC_RKLp-WW-H-6" value="Confirm like" style="edgeLabel;html=1;align=center;verticalAlign=middle;resizable=0;points=[];" parent="4zn2bzEABC_RKLp-WW-H-5" vertex="1" connectable="0">
          <mxGeometry x="0.028" y="-1" relative="1" as="geometry">
            <mxPoint as="offset" />
          </mxGeometry>
        </mxCell>
        <mxCell id="4zn2bzEABC_RKLp-WW-H-7" value="" style="shape=flexArrow;endArrow=classic;html=1;rounded=0;entryX=1.3;entryY=0.648;entryDx=0;entryDy=0;entryPerimeter=0;exitX=-0.643;exitY=0.789;exitDx=0;exitDy=0;exitPerimeter=0;" parent="1" edge="1" source="fmid_au7C9tkOWGoQfRK-7">
          <mxGeometry width="50" height="50" relative="1" as="geometry">
            <mxPoint x="770" y="500" as="sourcePoint" />
            <mxPoint x="342.5" y="510" as="targetPoint" />
          </mxGeometry>
        </mxCell>
        <mxCell id="4zn2bzEABC_RKLp-WW-H-8" value="Like shown" style="edgeLabel;html=1;align=center;verticalAlign=middle;resizable=0;points=[];" parent="4zn2bzEABC_RKLp-WW-H-7" vertex="1" connectable="0">
          <mxGeometry x="0.028" y="-1" relative="1" as="geometry">
            <mxPoint as="offset" />
          </mxGeometry>
        </mxCell>
      </root>
    </mxGraphModel>
  </diagram>
  <diagram id="0R25cU2djO6IQFfY3jXJ" name="Post in Group  (For Users)">
    <mxGraphModel dx="1050" dy="522" grid="1" gridSize="10" guides="1" tooltips="1" connect="1" arrows="1" fold="1" page="1" pageScale="1" pageWidth="827" pageHeight="1169" math="0" shadow="0">
      <root>
        <mxCell id="0" />
        <mxCell id="1" parent="0" />
        <mxCell id="DWCvdXSghWDvx-EdiM2z-1" value="System" style="rounded=0;whiteSpace=wrap;html=1;" parent="1" vertex="1">
          <mxGeometry x="720" y="160" width="120" height="80" as="geometry" />
        </mxCell>
        <mxCell id="DWCvdXSghWDvx-EdiM2z-2" value="" style="endArrow=none;dashed=1;html=1;dashPattern=1 3;strokeWidth=2;rounded=0;" parent="1" edge="1">
          <mxGeometry width="50" height="50" relative="1" as="geometry">
            <mxPoint x="340" y="320" as="sourcePoint" />
            <mxPoint x="339.5" y="260" as="targetPoint" />
          </mxGeometry>
        </mxCell>
        <mxCell id="DWCvdXSghWDvx-EdiM2z-3" value="" style="endArrow=none;dashed=1;html=1;dashPattern=1 3;strokeWidth=2;rounded=0;entryX=0.5;entryY=1;entryDx=0;entryDy=0;" parent="1" target="DWCvdXSghWDvx-EdiM2z-1" edge="1">
          <mxGeometry width="50" height="50" relative="1" as="geometry">
            <mxPoint x="780" y="320" as="sourcePoint" />
            <mxPoint x="779.58" y="260" as="targetPoint" />
          </mxGeometry>
        </mxCell>
        <mxCell id="DWCvdXSghWDvx-EdiM2z-4" value="" style="rounded=0;whiteSpace=wrap;html=1;" parent="1" vertex="1">
          <mxGeometry x="337.5" y="320" width="5" height="320" as="geometry" />
        </mxCell>
        <mxCell id="DWCvdXSghWDvx-EdiM2z-5" value="" style="rounded=0;whiteSpace=wrap;html=1;" parent="1" vertex="1">
          <mxGeometry x="777.5" y="320" width="5" height="320" as="geometry" />
        </mxCell>
        <mxCell id="DWCvdXSghWDvx-EdiM2z-9" value="Users" style="shape=umlActor;verticalLabelPosition=bottom;verticalAlign=top;html=1;outlineConnect=0;" parent="1" vertex="1">
          <mxGeometry x="320" y="160" width="40" height="70" as="geometry" />
        </mxCell>
        <mxCell id="DWCvdXSghWDvx-EdiM2z-10" value="&lt;div&gt;&lt;b&gt;&lt;font style=&quot;font-size: 16px;&quot;&gt;Post in Group&amp;nbsp;&lt;/font&gt;&lt;/b&gt;&lt;/div&gt;&lt;div&gt;&lt;b&gt;&lt;font style=&quot;font-size: 16px;&quot;&gt;(For Users)&lt;/font&gt;&lt;/b&gt;&lt;/div&gt;" style="text;html=1;align=center;verticalAlign=middle;whiteSpace=wrap;rounded=0;fillColor=#fff2cc;strokeColor=#d6b656;" parent="1" vertex="1">
          <mxGeometry x="440" y="40" width="200" height="80" as="geometry" />
        </mxCell>
        <mxCell id="DWCvdXSghWDvx-EdiM2z-11" value="" style="endArrow=classic;html=1;rounded=0;" parent="1" edge="1">
          <mxGeometry width="50" height="50" relative="1" as="geometry">
            <mxPoint x="350" y="360" as="sourcePoint" />
            <mxPoint x="770" y="360" as="targetPoint" />
          </mxGeometry>
        </mxCell>
        <mxCell id="DWCvdXSghWDvx-EdiM2z-12" value="Enter a group" style="edgeLabel;html=1;align=center;verticalAlign=middle;resizable=0;points=[];" parent="DWCvdXSghWDvx-EdiM2z-11" vertex="1" connectable="0">
          <mxGeometry x="-0.412" y="-1" relative="1" as="geometry">
            <mxPoint x="87" as="offset" />
          </mxGeometry>
        </mxCell>
        <mxCell id="DWCvdXSghWDvx-EdiM2z-13" value="" style="endArrow=classic;html=1;rounded=0;" parent="1" edge="1">
          <mxGeometry width="50" height="50" relative="1" as="geometry">
            <mxPoint x="350" y="400" as="sourcePoint" />
            <mxPoint x="770" y="400" as="targetPoint" />
          </mxGeometry>
        </mxCell>
        <mxCell id="DWCvdXSghWDvx-EdiM2z-14" value="Create post" style="edgeLabel;html=1;align=center;verticalAlign=middle;resizable=0;points=[];" parent="DWCvdXSghWDvx-EdiM2z-13" vertex="1" connectable="0">
          <mxGeometry x="-0.0236" y="2" relative="1" as="geometry">
            <mxPoint as="offset" />
          </mxGeometry>
        </mxCell>
        <mxCell id="DWCvdXSghWDvx-EdiM2z-15" value="" style="endArrow=none;html=1;rounded=0;" parent="1" edge="1">
          <mxGeometry width="50" height="50" relative="1" as="geometry">
            <mxPoint x="782.5" y="560" as="sourcePoint" />
            <mxPoint x="802.5" y="560" as="targetPoint" />
          </mxGeometry>
        </mxCell>
        <mxCell id="DWCvdXSghWDvx-EdiM2z-16" value="" style="endArrow=classic;html=1;rounded=0;entryX=1.089;entryY=0.395;entryDx=0;entryDy=0;entryPerimeter=0;" parent="1" edge="1">
          <mxGeometry width="50" height="50" relative="1" as="geometry">
            <mxPoint x="802.5" y="590" as="sourcePoint" />
            <mxPoint x="785.445" y="590.6" as="targetPoint" />
          </mxGeometry>
        </mxCell>
        <mxCell id="DWCvdXSghWDvx-EdiM2z-17" value="Update data" style="text;html=1;align=center;verticalAlign=middle;whiteSpace=wrap;rounded=0;" parent="1" vertex="1">
          <mxGeometry x="802.5" y="560" width="60" height="30" as="geometry" />
        </mxCell>
        <mxCell id="DWCvdXSghWDvx-EdiM2z-18" value="" style="endArrow=none;html=1;rounded=0;" parent="1" edge="1">
          <mxGeometry width="50" height="50" relative="1" as="geometry">
            <mxPoint x="802.5" y="590" as="sourcePoint" />
            <mxPoint x="802.5" y="560" as="targetPoint" />
          </mxGeometry>
        </mxCell>
        <mxCell id="DWCvdXSghWDvx-EdiM2z-24" value="" style="shape=flexArrow;endArrow=classic;html=1;rounded=0;" parent="1" edge="1">
          <mxGeometry width="50" height="50" relative="1" as="geometry">
            <mxPoint x="775.0526829769736" y="477" as="sourcePoint" />
            <mxPoint x="350" y="477" as="targetPoint" />
          </mxGeometry>
        </mxCell>
        <mxCell id="DWCvdXSghWDvx-EdiM2z-25" value="Request posting materials" style="edgeLabel;html=1;align=center;verticalAlign=middle;resizable=0;points=[];" parent="DWCvdXSghWDvx-EdiM2z-24" vertex="1" connectable="0">
          <mxGeometry x="0.0449" y="3" relative="1" as="geometry">
            <mxPoint as="offset" />
          </mxGeometry>
        </mxCell>
        <mxCell id="DWCvdXSghWDvx-EdiM2z-26" value="" style="endArrow=classic;html=1;rounded=0;" parent="1" edge="1">
          <mxGeometry width="50" height="50" relative="1" as="geometry">
            <mxPoint x="342.5" y="520" as="sourcePoint" />
            <mxPoint x="770" y="520" as="targetPoint" />
          </mxGeometry>
        </mxCell>
        <mxCell id="DWCvdXSghWDvx-EdiM2z-27" value="Provide Resources" style="edgeLabel;html=1;align=center;verticalAlign=middle;resizable=0;points=[];" parent="DWCvdXSghWDvx-EdiM2z-26" vertex="1" connectable="0">
          <mxGeometry x="-0.0236" y="2" relative="1" as="geometry">
            <mxPoint x="9" as="offset" />
          </mxGeometry>
        </mxCell>
        <mxCell id="DWCvdXSghWDvx-EdiM2z-29" value="" style="shape=flexArrow;endArrow=classic;html=1;rounded=0;" parent="1" edge="1">
          <mxGeometry width="50" height="50" relative="1" as="geometry">
            <mxPoint x="770" y="600" as="sourcePoint" />
            <mxPoint x="350" y="600" as="targetPoint" />
          </mxGeometry>
        </mxCell>
        <mxCell id="DWCvdXSghWDvx-EdiM2z-30" value="Show Post" style="edgeLabel;html=1;align=center;verticalAlign=middle;resizable=0;points=[];" parent="DWCvdXSghWDvx-EdiM2z-29" vertex="1" connectable="0">
          <mxGeometry x="0.0449" y="3" relative="1" as="geometry">
            <mxPoint as="offset" />
          </mxGeometry>
        </mxCell>
      </root>
    </mxGraphModel>
  </diagram>
  <diagram id="ThDACT6cETVBoktDshJ4" name="Edit Profile (For Users)">
    <mxGraphModel dx="1050" dy="522" grid="1" gridSize="10" guides="1" tooltips="1" connect="1" arrows="1" fold="1" page="1" pageScale="1" pageWidth="827" pageHeight="1169" math="0" shadow="0">
      <root>
        <mxCell id="0" />
        <mxCell id="1" parent="0" />
        <mxCell id="VyIluABsqXdlKIUx20IE-1" value="System" style="rounded=0;whiteSpace=wrap;html=1;" parent="1" vertex="1">
          <mxGeometry x="720" y="160" width="120" height="80" as="geometry" />
        </mxCell>
        <mxCell id="VyIluABsqXdlKIUx20IE-2" value="" style="endArrow=none;dashed=1;html=1;dashPattern=1 3;strokeWidth=2;rounded=0;" parent="1" edge="1">
          <mxGeometry width="50" height="50" relative="1" as="geometry">
            <mxPoint x="340" y="320" as="sourcePoint" />
            <mxPoint x="339.5" y="260" as="targetPoint" />
          </mxGeometry>
        </mxCell>
        <mxCell id="VyIluABsqXdlKIUx20IE-3" value="" style="endArrow=none;dashed=1;html=1;dashPattern=1 3;strokeWidth=2;rounded=0;entryX=0.5;entryY=1;entryDx=0;entryDy=0;" parent="1" target="VyIluABsqXdlKIUx20IE-1" edge="1">
          <mxGeometry width="50" height="50" relative="1" as="geometry">
            <mxPoint x="780" y="320" as="sourcePoint" />
            <mxPoint x="779.58" y="260" as="targetPoint" />
          </mxGeometry>
        </mxCell>
        <mxCell id="VyIluABsqXdlKIUx20IE-4" value="" style="rounded=0;whiteSpace=wrap;html=1;" parent="1" vertex="1">
          <mxGeometry x="337.5" y="320" width="5" height="400" as="geometry" />
        </mxCell>
        <mxCell id="VyIluABsqXdlKIUx20IE-5" value="" style="rounded=0;whiteSpace=wrap;html=1;" parent="1" vertex="1">
          <mxGeometry x="777.5" y="320" width="5" height="400" as="geometry" />
        </mxCell>
        <mxCell id="VyIluABsqXdlKIUx20IE-9" value="Users" style="shape=umlActor;verticalLabelPosition=bottom;verticalAlign=top;html=1;outlineConnect=0;" parent="1" vertex="1">
          <mxGeometry x="320" y="160" width="40" height="70" as="geometry" />
        </mxCell>
        <mxCell id="VyIluABsqXdlKIUx20IE-10" value="&lt;div&gt;&lt;b&gt;&lt;font style=&quot;font-size: 16px;&quot;&gt;Edit Porfile&amp;nbsp;&lt;/font&gt;&lt;/b&gt;&lt;/div&gt;&lt;div&gt;&lt;b&gt;&lt;font style=&quot;font-size: 16px;&quot;&gt;(For Users)&lt;/font&gt;&lt;/b&gt;&lt;/div&gt;" style="text;html=1;align=center;verticalAlign=middle;whiteSpace=wrap;rounded=0;fillColor=#fff2cc;strokeColor=#d6b656;" parent="1" vertex="1">
          <mxGeometry x="460" y="40" width="200" height="80" as="geometry" />
        </mxCell>
        <mxCell id="VyIluABsqXdlKIUx20IE-11" value="" style="endArrow=classic;html=1;rounded=0;entryX=-1.18;entryY=0.092;entryDx=0;entryDy=0;entryPerimeter=0;" parent="1" edge="1" target="VyIluABsqXdlKIUx20IE-5">
          <mxGeometry width="50" height="50" relative="1" as="geometry">
            <mxPoint x="350" y="360" as="sourcePoint" />
            <mxPoint x="550" y="360" as="targetPoint" />
          </mxGeometry>
        </mxCell>
        <mxCell id="VyIluABsqXdlKIUx20IE-12" value="Enter profile page" style="edgeLabel;html=1;align=center;verticalAlign=middle;resizable=0;points=[];" parent="VyIluABsqXdlKIUx20IE-11" vertex="1" connectable="0">
          <mxGeometry x="-0.412" y="-1" relative="1" as="geometry">
            <mxPoint x="76" as="offset" />
          </mxGeometry>
        </mxCell>
        <mxCell id="VyIluABsqXdlKIUx20IE-13" value="" style="endArrow=classic;html=1;rounded=0;" parent="1" edge="1">
          <mxGeometry width="50" height="50" relative="1" as="geometry">
            <mxPoint x="350" y="400" as="sourcePoint" />
            <mxPoint x="770" y="400" as="targetPoint" />
          </mxGeometry>
        </mxCell>
        <mxCell id="VyIluABsqXdlKIUx20IE-14" value="Request Profile Information" style="edgeLabel;html=1;align=center;verticalAlign=middle;resizable=0;points=[];" parent="VyIluABsqXdlKIUx20IE-13" vertex="1" connectable="0">
          <mxGeometry x="-0.0236" y="2" relative="1" as="geometry">
            <mxPoint as="offset" />
          </mxGeometry>
        </mxCell>
        <mxCell id="VyIluABsqXdlKIUx20IE-15" value="" style="endArrow=none;html=1;rounded=0;" parent="1" edge="1">
          <mxGeometry width="50" height="50" relative="1" as="geometry">
            <mxPoint x="782.5" y="600" as="sourcePoint" />
            <mxPoint x="802.5" y="600" as="targetPoint" />
          </mxGeometry>
        </mxCell>
        <mxCell id="VyIluABsqXdlKIUx20IE-16" value="" style="endArrow=classic;html=1;rounded=0;entryX=1.089;entryY=0.395;entryDx=0;entryDy=0;entryPerimeter=0;" parent="1" edge="1">
          <mxGeometry width="50" height="50" relative="1" as="geometry">
            <mxPoint x="802.5" y="630" as="sourcePoint" />
            <mxPoint x="785.445" y="630.6" as="targetPoint" />
          </mxGeometry>
        </mxCell>
        <mxCell id="VyIluABsqXdlKIUx20IE-17" value="Update data" style="text;html=1;align=center;verticalAlign=middle;whiteSpace=wrap;rounded=0;" parent="1" vertex="1">
          <mxGeometry x="802.5" y="600" width="60" height="30" as="geometry" />
        </mxCell>
        <mxCell id="VyIluABsqXdlKIUx20IE-18" value="" style="endArrow=none;html=1;rounded=0;" parent="1" edge="1">
          <mxGeometry width="50" height="50" relative="1" as="geometry">
            <mxPoint x="802.5" y="630" as="sourcePoint" />
            <mxPoint x="802.5" y="600" as="targetPoint" />
          </mxGeometry>
        </mxCell>
        <mxCell id="VyIluABsqXdlKIUx20IE-20" value="" style="shape=flexArrow;endArrow=classic;html=1;rounded=0;" parent="1" edge="1">
          <mxGeometry width="50" height="50" relative="1" as="geometry">
            <mxPoint x="775.0526829769736" y="477" as="sourcePoint" />
            <mxPoint x="350" y="477" as="targetPoint" />
          </mxGeometry>
        </mxCell>
        <mxCell id="VyIluABsqXdlKIUx20IE-21" value="Send Profile Information" style="edgeLabel;html=1;align=center;verticalAlign=middle;resizable=0;points=[];" parent="VyIluABsqXdlKIUx20IE-20" vertex="1" connectable="0">
          <mxGeometry x="0.0449" y="3" relative="1" as="geometry">
            <mxPoint as="offset" />
          </mxGeometry>
        </mxCell>
        <mxCell id="VyIluABsqXdlKIUx20IE-28" value="" style="shape=flexArrow;endArrow=classic;html=1;rounded=0;" parent="1" edge="1">
          <mxGeometry width="50" height="50" relative="1" as="geometry">
            <mxPoint x="770" y="520" as="sourcePoint" />
            <mxPoint x="352.45" y="520" as="targetPoint" />
          </mxGeometry>
        </mxCell>
        <mxCell id="VyIluABsqXdlKIUx20IE-29" value="Show Profile Information" style="edgeLabel;html=1;align=center;verticalAlign=middle;resizable=0;points=[];" parent="VyIluABsqXdlKIUx20IE-28" vertex="1" connectable="0">
          <mxGeometry x="0.0449" y="3" relative="1" as="geometry">
            <mxPoint as="offset" />
          </mxGeometry>
        </mxCell>
        <mxCell id="VyIluABsqXdlKIUx20IE-30" value="" style="endArrow=classic;html=1;rounded=0;" parent="1" edge="1">
          <mxGeometry width="50" height="50" relative="1" as="geometry">
            <mxPoint x="357.5" y="560" as="sourcePoint" />
            <mxPoint x="770" y="560" as="targetPoint" />
          </mxGeometry>
        </mxCell>
        <mxCell id="VyIluABsqXdlKIUx20IE-31" value="Edit profile" style="edgeLabel;html=1;align=center;verticalAlign=middle;resizable=0;points=[];" parent="VyIluABsqXdlKIUx20IE-30" vertex="1" connectable="0">
          <mxGeometry x="-0.412" y="-1" relative="1" as="geometry">
            <mxPoint x="82" y="-1" as="offset" />
          </mxGeometry>
        </mxCell>
        <mxCell id="VyIluABsqXdlKIUx20IE-32" value="" style="endArrow=classic;html=1;rounded=0;" parent="1" edge="1">
          <mxGeometry width="50" height="50" relative="1" as="geometry">
            <mxPoint x="350" y="600" as="sourcePoint" />
            <mxPoint x="777.5" y="600" as="targetPoint" />
          </mxGeometry>
        </mxCell>
        <mxCell id="VyIluABsqXdlKIUx20IE-33" value="Edited profile information" style="edgeLabel;html=1;align=center;verticalAlign=middle;resizable=0;points=[];" parent="VyIluABsqXdlKIUx20IE-32" vertex="1" connectable="0">
          <mxGeometry x="-0.0236" y="2" relative="1" as="geometry">
            <mxPoint as="offset" />
          </mxGeometry>
        </mxCell>
        <mxCell id="VyIluABsqXdlKIUx20IE-35" value="" style="shape=flexArrow;endArrow=classic;html=1;rounded=0;" parent="1" edge="1">
          <mxGeometry width="50" height="50" relative="1" as="geometry">
            <mxPoint x="771.3026829769736" y="640" as="sourcePoint" />
            <mxPoint x="350" y="640" as="targetPoint" />
          </mxGeometry>
        </mxCell>
        <mxCell id="VyIluABsqXdlKIUx20IE-36" value="Show new profile information" style="edgeLabel;html=1;align=center;verticalAlign=middle;resizable=0;points=[];" parent="VyIluABsqXdlKIUx20IE-35" vertex="1" connectable="0">
          <mxGeometry x="0.0449" y="3" relative="1" as="geometry">
            <mxPoint as="offset" />
          </mxGeometry>
        </mxCell>
        <mxCell id="VyIluABsqXdlKIUx20IE-37" value="" style="shape=flexArrow;endArrow=classic;html=1;rounded=0;" parent="1" edge="1">
          <mxGeometry width="50" height="50" relative="1" as="geometry">
            <mxPoint x="770" y="680" as="sourcePoint" />
            <mxPoint x="348.7" y="683" as="targetPoint" />
          </mxGeometry>
        </mxCell>
        <mxCell id="VyIluABsqXdlKIUx20IE-38" value="Show profile information" style="edgeLabel;html=1;align=center;verticalAlign=middle;resizable=0;points=[];" parent="VyIluABsqXdlKIUx20IE-37" vertex="1" connectable="0">
          <mxGeometry x="0.0449" y="3" relative="1" as="geometry">
            <mxPoint as="offset" />
          </mxGeometry>
        </mxCell>
      </root>
    </mxGraphModel>
  </diagram>
  <diagram id="pQ7VnLte5ddzr1Z9wYI9" name="Edit Group (For Users)">
    <mxGraphModel dx="1235" dy="614" grid="1" gridSize="10" guides="1" tooltips="1" connect="1" arrows="1" fold="1" page="1" pageScale="1" pageWidth="827" pageHeight="1169" math="0" shadow="0">
      <root>
        <mxCell id="0" />
        <mxCell id="1" parent="0" />
        <mxCell id="Olx6yC9am-c3LjGLhRoC-1" value="System" style="rounded=0;whiteSpace=wrap;html=1;" parent="1" vertex="1">
          <mxGeometry x="720" y="160" width="120" height="80" as="geometry" />
        </mxCell>
        <mxCell id="Olx6yC9am-c3LjGLhRoC-2" value="" style="endArrow=none;dashed=1;html=1;dashPattern=1 3;strokeWidth=2;rounded=0;" parent="1" edge="1">
          <mxGeometry width="50" height="50" relative="1" as="geometry">
            <mxPoint x="340" y="320" as="sourcePoint" />
            <mxPoint x="339.5" y="260" as="targetPoint" />
          </mxGeometry>
        </mxCell>
        <mxCell id="Olx6yC9am-c3LjGLhRoC-3" value="" style="endArrow=none;dashed=1;html=1;dashPattern=1 3;strokeWidth=2;rounded=0;entryX=0.5;entryY=1;entryDx=0;entryDy=0;" parent="1" target="Olx6yC9am-c3LjGLhRoC-1" edge="1">
          <mxGeometry width="50" height="50" relative="1" as="geometry">
            <mxPoint x="780" y="320" as="sourcePoint" />
            <mxPoint x="779.58" y="260" as="targetPoint" />
          </mxGeometry>
        </mxCell>
        <mxCell id="Olx6yC9am-c3LjGLhRoC-4" value="" style="rounded=0;whiteSpace=wrap;html=1;" parent="1" vertex="1">
          <mxGeometry x="337.5" y="320" width="5" height="560" as="geometry" />
        </mxCell>
        <mxCell id="Olx6yC9am-c3LjGLhRoC-5" value="" style="rounded=0;whiteSpace=wrap;html=1;" parent="1" vertex="1">
          <mxGeometry x="777.5" y="320" width="5" height="560" as="geometry" />
        </mxCell>
        <mxCell id="Olx6yC9am-c3LjGLhRoC-9" value="Users" style="shape=umlActor;verticalLabelPosition=bottom;verticalAlign=top;html=1;outlineConnect=0;" parent="1" vertex="1">
          <mxGeometry x="320" y="160" width="40" height="70" as="geometry" />
        </mxCell>
        <mxCell id="Olx6yC9am-c3LjGLhRoC-10" value="&lt;div&gt;&lt;b&gt;&lt;font style=&quot;font-size: 16px;&quot;&gt;Edit Group&lt;/font&gt;&lt;/b&gt;&lt;/div&gt;&lt;div&gt;&lt;b&gt;&lt;font style=&quot;font-size: 16px;&quot;&gt;(For Users)&lt;/font&gt;&lt;/b&gt;&lt;/div&gt;" style="text;html=1;align=center;verticalAlign=middle;whiteSpace=wrap;rounded=0;fillColor=#fff2cc;strokeColor=#d6b656;" parent="1" vertex="1">
          <mxGeometry x="460" y="40" width="200" height="80" as="geometry" />
        </mxCell>
        <mxCell id="Olx6yC9am-c3LjGLhRoC-11" value="" style="endArrow=classic;html=1;rounded=0;" parent="1" edge="1">
          <mxGeometry width="50" height="50" relative="1" as="geometry">
            <mxPoint x="350" y="360" as="sourcePoint" />
            <mxPoint x="770" y="360" as="targetPoint" />
          </mxGeometry>
        </mxCell>
        <mxCell id="Olx6yC9am-c3LjGLhRoC-12" value="Enter group" style="edgeLabel;html=1;align=center;verticalAlign=middle;resizable=0;points=[];" parent="Olx6yC9am-c3LjGLhRoC-11" vertex="1" connectable="0">
          <mxGeometry x="-0.412" y="-1" relative="1" as="geometry">
            <mxPoint x="97" as="offset" />
          </mxGeometry>
        </mxCell>
        <mxCell id="Olx6yC9am-c3LjGLhRoC-13" value="" style="endArrow=classic;html=1;rounded=0;" parent="1" edge="1">
          <mxGeometry width="50" height="50" relative="1" as="geometry">
            <mxPoint x="350" y="400" as="sourcePoint" />
            <mxPoint x="770" y="400" as="targetPoint" />
          </mxGeometry>
        </mxCell>
        <mxCell id="Olx6yC9am-c3LjGLhRoC-14" value="Request Group Information" style="edgeLabel;html=1;align=center;verticalAlign=middle;resizable=0;points=[];" parent="Olx6yC9am-c3LjGLhRoC-13" vertex="1" connectable="0">
          <mxGeometry x="-0.0236" y="2" relative="1" as="geometry">
            <mxPoint as="offset" />
          </mxGeometry>
        </mxCell>
        <mxCell id="Olx6yC9am-c3LjGLhRoC-15" value="" style="endArrow=none;html=1;rounded=0;" parent="1" edge="1">
          <mxGeometry width="50" height="50" relative="1" as="geometry">
            <mxPoint x="782.5" y="760" as="sourcePoint" />
            <mxPoint x="802.5" y="760" as="targetPoint" />
          </mxGeometry>
        </mxCell>
        <mxCell id="Olx6yC9am-c3LjGLhRoC-16" value="" style="endArrow=classic;html=1;rounded=0;entryX=1.089;entryY=0.395;entryDx=0;entryDy=0;entryPerimeter=0;" parent="1" edge="1">
          <mxGeometry width="50" height="50" relative="1" as="geometry">
            <mxPoint x="802.5" y="790" as="sourcePoint" />
            <mxPoint x="785.445" y="790.6" as="targetPoint" />
          </mxGeometry>
        </mxCell>
        <mxCell id="Olx6yC9am-c3LjGLhRoC-17" value="Update data" style="text;html=1;align=center;verticalAlign=middle;whiteSpace=wrap;rounded=0;" parent="1" vertex="1">
          <mxGeometry x="802.5" y="760" width="60" height="30" as="geometry" />
        </mxCell>
        <mxCell id="Olx6yC9am-c3LjGLhRoC-18" value="" style="endArrow=none;html=1;rounded=0;" parent="1" edge="1">
          <mxGeometry width="50" height="50" relative="1" as="geometry">
            <mxPoint x="802.5" y="790" as="sourcePoint" />
            <mxPoint x="802.5" y="760" as="targetPoint" />
          </mxGeometry>
        </mxCell>
        <mxCell id="Olx6yC9am-c3LjGLhRoC-19" value="" style="shape=flexArrow;endArrow=classic;html=1;rounded=0;" parent="1" edge="1">
          <mxGeometry width="50" height="50" relative="1" as="geometry">
            <mxPoint x="775.0526829769736" y="477" as="sourcePoint" />
            <mxPoint x="350" y="477" as="targetPoint" />
          </mxGeometry>
        </mxCell>
        <mxCell id="Olx6yC9am-c3LjGLhRoC-20" value="Send Group Information" style="edgeLabel;html=1;align=center;verticalAlign=middle;resizable=0;points=[];" parent="Olx6yC9am-c3LjGLhRoC-19" vertex="1" connectable="0">
          <mxGeometry x="0.0449" y="3" relative="1" as="geometry">
            <mxPoint as="offset" />
          </mxGeometry>
        </mxCell>
        <mxCell id="Olx6yC9am-c3LjGLhRoC-21" value="" style="shape=flexArrow;endArrow=classic;html=1;rounded=0;" parent="1" edge="1">
          <mxGeometry width="50" height="50" relative="1" as="geometry">
            <mxPoint x="770" y="520" as="sourcePoint" />
            <mxPoint x="352.45" y="520" as="targetPoint" />
          </mxGeometry>
        </mxCell>
        <mxCell id="Olx6yC9am-c3LjGLhRoC-22" value="Show Group Information" style="edgeLabel;html=1;align=center;verticalAlign=middle;resizable=0;points=[];" parent="Olx6yC9am-c3LjGLhRoC-21" vertex="1" connectable="0">
          <mxGeometry x="0.0449" y="3" relative="1" as="geometry">
            <mxPoint as="offset" />
          </mxGeometry>
        </mxCell>
        <mxCell id="Olx6yC9am-c3LjGLhRoC-23" value="" style="endArrow=classic;html=1;rounded=0;" parent="1" edge="1">
          <mxGeometry width="50" height="50" relative="1" as="geometry">
            <mxPoint x="350" y="560" as="sourcePoint" />
            <mxPoint x="770" y="560" as="targetPoint" />
          </mxGeometry>
        </mxCell>
        <mxCell id="Olx6yC9am-c3LjGLhRoC-24" value="Request edit group information" style="edgeLabel;html=1;align=center;verticalAlign=middle;resizable=0;points=[];" parent="Olx6yC9am-c3LjGLhRoC-23" vertex="1" connectable="0">
          <mxGeometry x="-0.412" y="-1" relative="1" as="geometry">
            <mxPoint x="79" y="-1" as="offset" />
          </mxGeometry>
        </mxCell>
        <mxCell id="Olx6yC9am-c3LjGLhRoC-34" value="" style="shape=flexArrow;endArrow=classic;html=1;rounded=0;" parent="1" edge="1">
          <mxGeometry width="50" height="50" relative="1" as="geometry">
            <mxPoint x="770" y="600" as="sourcePoint" />
            <mxPoint x="342.5" y="600" as="targetPoint" />
          </mxGeometry>
        </mxCell>
        <mxCell id="Olx6yC9am-c3LjGLhRoC-35" value="Request verification that user is a host" style="edgeLabel;html=1;align=center;verticalAlign=middle;resizable=0;points=[];" parent="Olx6yC9am-c3LjGLhRoC-34" vertex="1" connectable="0">
          <mxGeometry x="0.0449" y="3" relative="1" as="geometry">
            <mxPoint as="offset" />
          </mxGeometry>
        </mxCell>
        <mxCell id="Olx6yC9am-c3LjGLhRoC-36" value="" style="endArrow=classic;html=1;rounded=0;" parent="1" edge="1">
          <mxGeometry width="50" height="50" relative="1" as="geometry">
            <mxPoint x="342.5" y="640" as="sourcePoint" />
            <mxPoint x="770" y="640" as="targetPoint" />
          </mxGeometry>
        </mxCell>
        <mxCell id="Olx6yC9am-c3LjGLhRoC-37" value="Submit information" style="edgeLabel;html=1;align=center;verticalAlign=middle;resizable=0;points=[];" parent="Olx6yC9am-c3LjGLhRoC-36" vertex="1" connectable="0">
          <mxGeometry x="-0.412" y="-1" relative="1" as="geometry">
            <mxPoint x="79" y="-1" as="offset" />
          </mxGeometry>
        </mxCell>
        <mxCell id="qppSK_Fz0gTwa-e83ik0-1" value="" style="shape=flexArrow;endArrow=classic;html=1;rounded=0;" parent="1" edge="1">
          <mxGeometry width="50" height="50" relative="1" as="geometry">
            <mxPoint x="770" y="680" as="sourcePoint" />
            <mxPoint x="342.5" y="680" as="targetPoint" />
          </mxGeometry>
        </mxCell>
        <mxCell id="qppSK_Fz0gTwa-e83ik0-2" value="Verification complete" style="edgeLabel;html=1;align=center;verticalAlign=middle;resizable=0;points=[];" parent="qppSK_Fz0gTwa-e83ik0-1" vertex="1" connectable="0">
          <mxGeometry x="0.0449" y="3" relative="1" as="geometry">
            <mxPoint as="offset" />
          </mxGeometry>
        </mxCell>
        <mxCell id="dV6OrT7qsYq2kymotI9t-1" value="" style="endArrow=classic;html=1;rounded=0;" parent="1" edge="1">
          <mxGeometry width="50" height="50" relative="1" as="geometry">
            <mxPoint x="350" y="720" as="sourcePoint" />
            <mxPoint x="770" y="720" as="targetPoint" />
          </mxGeometry>
        </mxCell>
        <mxCell id="dV6OrT7qsYq2kymotI9t-2" value="Enter group information" style="edgeLabel;html=1;align=center;verticalAlign=middle;resizable=0;points=[];" parent="dV6OrT7qsYq2kymotI9t-1" vertex="1" connectable="0">
          <mxGeometry x="-0.412" y="-1" relative="1" as="geometry">
            <mxPoint x="22" as="offset" />
          </mxGeometry>
        </mxCell>
        <mxCell id="dV6OrT7qsYq2kymotI9t-3" value="" style="endArrow=classic;html=1;rounded=0;" parent="1" edge="1">
          <mxGeometry width="50" height="50" relative="1" as="geometry">
            <mxPoint x="350" y="760" as="sourcePoint" />
            <mxPoint x="770" y="760" as="targetPoint" />
          </mxGeometry>
        </mxCell>
        <mxCell id="dV6OrT7qsYq2kymotI9t-4" value="Send Edited Group Information" style="edgeLabel;html=1;align=center;verticalAlign=middle;resizable=0;points=[];" parent="dV6OrT7qsYq2kymotI9t-3" vertex="1" connectable="0">
          <mxGeometry x="-0.0236" y="2" relative="1" as="geometry">
            <mxPoint as="offset" />
          </mxGeometry>
        </mxCell>
        <mxCell id="NnlLOYz3PI4flZesqsdS-1" value="" style="shape=flexArrow;endArrow=classic;html=1;rounded=0;" parent="1" edge="1">
          <mxGeometry width="50" height="50" relative="1" as="geometry">
            <mxPoint x="771.3026829769736" y="790" as="sourcePoint" />
            <mxPoint x="350" y="790" as="targetPoint" />
          </mxGeometry>
        </mxCell>
        <mxCell id="NnlLOYz3PI4flZesqsdS-2" value="Show new group information" style="edgeLabel;html=1;align=center;verticalAlign=middle;resizable=0;points=[];" parent="NnlLOYz3PI4flZesqsdS-1" vertex="1" connectable="0">
          <mxGeometry x="0.0449" y="3" relative="1" as="geometry">
            <mxPoint as="offset" />
          </mxGeometry>
        </mxCell>
        <mxCell id="NnlLOYz3PI4flZesqsdS-3" value="" style="shape=flexArrow;endArrow=classic;html=1;rounded=0;" parent="1" edge="1">
          <mxGeometry width="50" height="50" relative="1" as="geometry">
            <mxPoint x="770" y="833" as="sourcePoint" />
            <mxPoint x="348.7" y="833" as="targetPoint" />
          </mxGeometry>
        </mxCell>
        <mxCell id="NnlLOYz3PI4flZesqsdS-4" value="Show group information" style="edgeLabel;html=1;align=center;verticalAlign=middle;resizable=0;points=[];" parent="NnlLOYz3PI4flZesqsdS-3" vertex="1" connectable="0">
          <mxGeometry x="0.0449" y="3" relative="1" as="geometry">
            <mxPoint as="offset" />
          </mxGeometry>
        </mxCell>
      </root>
    </mxGraphModel>
  </diagram>
  <diagram id="qwf1BxL6Y_Ne-wecjWx0" name="Check Post (For Admin)">
    <mxGraphModel dx="600" dy="298" grid="1" gridSize="10" guides="1" tooltips="1" connect="1" arrows="1" fold="1" page="1" pageScale="1" pageWidth="827" pageHeight="1169" math="0" shadow="0">
      <root>
        <mxCell id="0" />
        <mxCell id="1" parent="0" />
        <mxCell id="mv19QA9MjB2eNwrUWzIk-1" value="Admin" style="shape=umlActor;verticalLabelPosition=bottom;verticalAlign=top;html=1;outlineConnect=0;" parent="1" vertex="1">
          <mxGeometry x="320" y="160" width="40" height="70" as="geometry" />
        </mxCell>
        <mxCell id="mv19QA9MjB2eNwrUWzIk-2" value="System" style="rounded=0;whiteSpace=wrap;html=1;" parent="1" vertex="1">
          <mxGeometry x="520" y="160" width="120" height="80" as="geometry" />
        </mxCell>
        <mxCell id="mv19QA9MjB2eNwrUWzIk-3" value="" style="endArrow=none;dashed=1;html=1;dashPattern=1 3;strokeWidth=2;rounded=0;" parent="1" edge="1">
          <mxGeometry width="50" height="50" relative="1" as="geometry">
            <mxPoint x="340" y="320" as="sourcePoint" />
            <mxPoint x="339.5" y="260" as="targetPoint" />
          </mxGeometry>
        </mxCell>
        <mxCell id="mv19QA9MjB2eNwrUWzIk-4" value="" style="endArrow=none;dashed=1;html=1;dashPattern=1 3;strokeWidth=2;rounded=0;entryX=0.5;entryY=1;entryDx=0;entryDy=0;" parent="1" target="mv19QA9MjB2eNwrUWzIk-2" edge="1">
          <mxGeometry width="50" height="50" relative="1" as="geometry">
            <mxPoint x="580" y="320" as="sourcePoint" />
            <mxPoint x="579.58" y="260" as="targetPoint" />
          </mxGeometry>
        </mxCell>
        <mxCell id="mv19QA9MjB2eNwrUWzIk-5" value="" style="endArrow=classic;html=1;rounded=0;exitX=0.913;exitY=0.167;exitDx=0;exitDy=0;exitPerimeter=0;entryX=0.5;entryY=0.167;entryDx=0;entryDy=0;entryPerimeter=0;" parent="1" edge="1">
          <mxGeometry width="50" height="50" relative="1" as="geometry">
            <mxPoint x="341" y="360" as="sourcePoint" />
            <mxPoint x="579" y="360" as="targetPoint" />
          </mxGeometry>
        </mxCell>
        <mxCell id="mv19QA9MjB2eNwrUWzIk-6" value="Browse post" style="edgeLabel;html=1;align=center;verticalAlign=middle;resizable=0;points=[];" parent="mv19QA9MjB2eNwrUWzIk-5" vertex="1" connectable="0">
          <mxGeometry x="-0.0226" y="1" relative="1" as="geometry">
            <mxPoint as="offset" />
          </mxGeometry>
        </mxCell>
        <mxCell id="mv19QA9MjB2eNwrUWzIk-7" value="" style="shape=flexArrow;endArrow=classic;html=1;rounded=0;entryX=1;entryY=0.75;entryDx=0;entryDy=0;exitX=0;exitY=0.75;exitDx=0;exitDy=0;" parent="1" edge="1">
          <mxGeometry width="50" height="50" relative="1" as="geometry">
            <mxPoint x="577.5" y="400" as="sourcePoint" />
            <mxPoint x="342.5" y="400" as="targetPoint" />
          </mxGeometry>
        </mxCell>
        <mxCell id="mv19QA9MjB2eNwrUWzIk-8" value="&lt;font style=&quot;font-size: 9px;&quot;&gt;Show requested posts&amp;nbsp;&lt;/font&gt;" style="edgeLabel;html=1;align=center;verticalAlign=middle;resizable=0;points=[];" parent="mv19QA9MjB2eNwrUWzIk-7" vertex="1" connectable="0">
          <mxGeometry x="0.0165" y="-1" relative="1" as="geometry">
            <mxPoint as="offset" />
          </mxGeometry>
        </mxCell>
        <mxCell id="mv19QA9MjB2eNwrUWzIk-9" value="&lt;span style=&quot;font-size: 16px;&quot;&gt;&lt;b&gt;Check Post&amp;nbsp;&lt;/b&gt;&lt;/span&gt;&lt;div&gt;&lt;span style=&quot;font-size: 16px;&quot;&gt;&lt;b&gt;(For Admin)&lt;/b&gt;&lt;/span&gt;&lt;/div&gt;" style="text;html=1;align=center;verticalAlign=middle;whiteSpace=wrap;rounded=0;fillColor=#fff2cc;strokeColor=#d6b656;" parent="1" vertex="1">
          <mxGeometry x="360" y="40" width="200" height="80" as="geometry" />
        </mxCell>
        <mxCell id="mv19QA9MjB2eNwrUWzIk-10" value="" style="rounded=0;whiteSpace=wrap;html=1;" parent="1" vertex="1">
          <mxGeometry x="337.5" y="320" width="5" height="160" as="geometry" />
        </mxCell>
        <mxCell id="mv19QA9MjB2eNwrUWzIk-11" value="" style="rounded=0;whiteSpace=wrap;html=1;" parent="1" vertex="1">
          <mxGeometry x="577.5" y="320" width="5" height="160" as="geometry" />
        </mxCell>
        <mxCell id="mv19QA9MjB2eNwrUWzIk-13" value="" style="endArrow=classic;html=1;rounded=0;exitX=0.913;exitY=0.167;exitDx=0;exitDy=0;exitPerimeter=0;entryX=0.5;entryY=0.167;entryDx=0;entryDy=0;entryPerimeter=0;" parent="1" edge="1">
          <mxGeometry width="50" height="50" relative="1" as="geometry">
            <mxPoint x="342.5" y="440" as="sourcePoint" />
            <mxPoint x="580.5" y="440" as="targetPoint" />
          </mxGeometry>
        </mxCell>
        <mxCell id="mv19QA9MjB2eNwrUWzIk-14" value="Checking posts" style="edgeLabel;html=1;align=center;verticalAlign=middle;resizable=0;points=[];" parent="mv19QA9MjB2eNwrUWzIk-13" vertex="1" connectable="0">
          <mxGeometry x="-0.0226" y="1" relative="1" as="geometry">
            <mxPoint as="offset" />
          </mxGeometry>
        </mxCell>
      </root>
    </mxGraphModel>
  </diagram>
  <diagram id="wTKYk92QQYYaPoH_IsRj" name="Check Library Resouces  (For Admin)">
    <mxGraphModel dx="1050" dy="522" grid="1" gridSize="10" guides="1" tooltips="1" connect="1" arrows="1" fold="1" page="1" pageScale="1" pageWidth="827" pageHeight="1169" math="0" shadow="0">
      <root>
        <mxCell id="0" />
        <mxCell id="1" parent="0" />
        <mxCell id="v-7RBYvELdgDjABHOc61-1" value="Admin" style="shape=umlActor;verticalLabelPosition=bottom;verticalAlign=top;html=1;outlineConnect=0;" parent="1" vertex="1">
          <mxGeometry x="320" y="160" width="40" height="70" as="geometry" />
        </mxCell>
        <mxCell id="v-7RBYvELdgDjABHOc61-2" value="System" style="rounded=0;whiteSpace=wrap;html=1;" parent="1" vertex="1">
          <mxGeometry x="520" y="160" width="120" height="80" as="geometry" />
        </mxCell>
        <mxCell id="v-7RBYvELdgDjABHOc61-3" value="" style="endArrow=none;dashed=1;html=1;dashPattern=1 3;strokeWidth=2;rounded=0;" parent="1" edge="1">
          <mxGeometry width="50" height="50" relative="1" as="geometry">
            <mxPoint x="340" y="320" as="sourcePoint" />
            <mxPoint x="339.5" y="260" as="targetPoint" />
          </mxGeometry>
        </mxCell>
        <mxCell id="v-7RBYvELdgDjABHOc61-4" value="" style="endArrow=none;dashed=1;html=1;dashPattern=1 3;strokeWidth=2;rounded=0;entryX=0.5;entryY=1;entryDx=0;entryDy=0;" parent="1" target="v-7RBYvELdgDjABHOc61-2" edge="1">
          <mxGeometry width="50" height="50" relative="1" as="geometry">
            <mxPoint x="580" y="320" as="sourcePoint" />
            <mxPoint x="579.58" y="260" as="targetPoint" />
          </mxGeometry>
        </mxCell>
        <mxCell id="v-7RBYvELdgDjABHOc61-5" value="" style="endArrow=classic;html=1;rounded=0;exitX=0.913;exitY=0.167;exitDx=0;exitDy=0;exitPerimeter=0;entryX=0.5;entryY=0.167;entryDx=0;entryDy=0;entryPerimeter=0;" parent="1" edge="1">
          <mxGeometry width="50" height="50" relative="1" as="geometry">
            <mxPoint x="341" y="360" as="sourcePoint" />
            <mxPoint x="579" y="360" as="targetPoint" />
          </mxGeometry>
        </mxCell>
        <mxCell id="v-7RBYvELdgDjABHOc61-6" value="Request Library resources" style="edgeLabel;html=1;align=center;verticalAlign=middle;resizable=0;points=[];" parent="v-7RBYvELdgDjABHOc61-5" vertex="1" connectable="0">
          <mxGeometry x="-0.0226" y="1" relative="1" as="geometry">
            <mxPoint as="offset" />
          </mxGeometry>
        </mxCell>
        <mxCell id="v-7RBYvELdgDjABHOc61-7" value="" style="shape=flexArrow;endArrow=classic;html=1;rounded=0;entryX=1;entryY=0.75;entryDx=0;entryDy=0;exitX=0;exitY=0.75;exitDx=0;exitDy=0;" parent="1" edge="1">
          <mxGeometry width="50" height="50" relative="1" as="geometry">
            <mxPoint x="577.5" y="400" as="sourcePoint" />
            <mxPoint x="342.5" y="400" as="targetPoint" />
          </mxGeometry>
        </mxCell>
        <mxCell id="v-7RBYvELdgDjABHOc61-8" value="&lt;font style=&quot;font-size: 9px;&quot;&gt;Show requested Library resources&amp;nbsp;&lt;/font&gt;" style="edgeLabel;html=1;align=center;verticalAlign=middle;resizable=0;points=[];" parent="v-7RBYvELdgDjABHOc61-7" vertex="1" connectable="0">
          <mxGeometry x="0.0165" y="-1" relative="1" as="geometry">
            <mxPoint as="offset" />
          </mxGeometry>
        </mxCell>
        <mxCell id="v-7RBYvELdgDjABHOc61-9" value="" style="rounded=0;whiteSpace=wrap;html=1;" parent="1" vertex="1">
          <mxGeometry x="337.5" y="320" width="5" height="160" as="geometry" />
        </mxCell>
        <mxCell id="v-7RBYvELdgDjABHOc61-10" value="" style="rounded=0;whiteSpace=wrap;html=1;" parent="1" vertex="1">
          <mxGeometry x="577.5" y="320" width="5" height="160" as="geometry" />
        </mxCell>
        <mxCell id="v-7RBYvELdgDjABHOc61-11" value="" style="endArrow=classic;html=1;rounded=0;exitX=0.913;exitY=0.167;exitDx=0;exitDy=0;exitPerimeter=0;entryX=0.5;entryY=0.167;entryDx=0;entryDy=0;entryPerimeter=0;" parent="1" edge="1">
          <mxGeometry width="50" height="50" relative="1" as="geometry">
            <mxPoint x="342.5" y="440" as="sourcePoint" />
            <mxPoint x="580.5" y="440" as="targetPoint" />
          </mxGeometry>
        </mxCell>
        <mxCell id="v-7RBYvELdgDjABHOc61-12" value="Checking Library resources" style="edgeLabel;html=1;align=center;verticalAlign=middle;resizable=0;points=[];" parent="v-7RBYvELdgDjABHOc61-11" vertex="1" connectable="0">
          <mxGeometry x="-0.0226" y="1" relative="1" as="geometry">
            <mxPoint as="offset" />
          </mxGeometry>
        </mxCell>
        <mxCell id="wUWdtNpELdyT1WI9zJgI-1" value="&lt;span style=&quot;font-size: 16px;&quot;&gt;&lt;b&gt;Check Library Resouces&amp;nbsp;&lt;/b&gt;&lt;/span&gt;&lt;div&gt;&lt;span style=&quot;font-size: 16px;&quot;&gt;&lt;b&gt;(For Admin)&lt;/b&gt;&lt;/span&gt;&lt;/div&gt;" style="text;html=1;align=center;verticalAlign=middle;whiteSpace=wrap;rounded=0;fillColor=#fff2cc;strokeColor=#d6b656;" parent="1" vertex="1">
          <mxGeometry x="360" y="40" width="200" height="80" as="geometry" />
        </mxCell>
      </root>
    </mxGraphModel>
  </diagram>
  <diagram id="_gLA3wsqAjT5nNC_oSnM" name="User / Group Management (For Admin)">
    <mxGraphModel dx="1050" dy="522" grid="1" gridSize="10" guides="1" tooltips="1" connect="1" arrows="1" fold="1" page="1" pageScale="1" pageWidth="827" pageHeight="1169" math="0" shadow="0">
      <root>
        <mxCell id="0" />
        <mxCell id="1" parent="0" />
        <mxCell id="JNarXX4-iZSSUhwLtEHI-1" value="Admin" style="shape=umlActor;verticalLabelPosition=bottom;verticalAlign=top;html=1;outlineConnect=0;" parent="1" vertex="1">
          <mxGeometry x="320" y="160" width="40" height="70" as="geometry" />
        </mxCell>
        <mxCell id="JNarXX4-iZSSUhwLtEHI-2" value="System" style="rounded=0;whiteSpace=wrap;html=1;" parent="1" vertex="1">
          <mxGeometry x="520" y="160" width="120" height="80" as="geometry" />
        </mxCell>
        <mxCell id="JNarXX4-iZSSUhwLtEHI-3" value="" style="endArrow=none;dashed=1;html=1;dashPattern=1 3;strokeWidth=2;rounded=0;" parent="1" edge="1">
          <mxGeometry width="50" height="50" relative="1" as="geometry">
            <mxPoint x="340" y="320" as="sourcePoint" />
            <mxPoint x="339.5" y="260" as="targetPoint" />
          </mxGeometry>
        </mxCell>
        <mxCell id="JNarXX4-iZSSUhwLtEHI-4" value="" style="endArrow=none;dashed=1;html=1;dashPattern=1 3;strokeWidth=2;rounded=0;entryX=0.5;entryY=1;entryDx=0;entryDy=0;" parent="1" target="JNarXX4-iZSSUhwLtEHI-2" edge="1">
          <mxGeometry width="50" height="50" relative="1" as="geometry">
            <mxPoint x="580" y="320" as="sourcePoint" />
            <mxPoint x="579.58" y="260" as="targetPoint" />
          </mxGeometry>
        </mxCell>
        <mxCell id="JNarXX4-iZSSUhwLtEHI-5" value="" style="endArrow=classic;html=1;rounded=0;exitX=0.913;exitY=0.167;exitDx=0;exitDy=0;exitPerimeter=0;entryX=0.5;entryY=0.167;entryDx=0;entryDy=0;entryPerimeter=0;" parent="1" edge="1">
          <mxGeometry width="50" height="50" relative="1" as="geometry">
            <mxPoint x="341" y="360" as="sourcePoint" />
            <mxPoint x="579" y="360" as="targetPoint" />
          </mxGeometry>
        </mxCell>
        <mxCell id="JNarXX4-iZSSUhwLtEHI-6" value="Request User / Group Information" style="edgeLabel;html=1;align=center;verticalAlign=middle;resizable=0;points=[];" parent="JNarXX4-iZSSUhwLtEHI-5" vertex="1" connectable="0">
          <mxGeometry x="-0.0226" y="1" relative="1" as="geometry">
            <mxPoint as="offset" />
          </mxGeometry>
        </mxCell>
        <mxCell id="JNarXX4-iZSSUhwLtEHI-7" value="" style="shape=flexArrow;endArrow=classic;html=1;rounded=0;entryX=1;entryY=0.75;entryDx=0;entryDy=0;exitX=0;exitY=0.75;exitDx=0;exitDy=0;" parent="1" edge="1">
          <mxGeometry width="50" height="50" relative="1" as="geometry">
            <mxPoint x="577.5" y="400" as="sourcePoint" />
            <mxPoint x="342.5" y="400" as="targetPoint" />
          </mxGeometry>
        </mxCell>
        <mxCell id="JNarXX4-iZSSUhwLtEHI-8" value="&lt;font style=&quot;font-size: 9px;&quot;&gt;Show User / Group Information&lt;/font&gt;" style="edgeLabel;html=1;align=center;verticalAlign=middle;resizable=0;points=[];" parent="JNarXX4-iZSSUhwLtEHI-7" vertex="1" connectable="0">
          <mxGeometry x="0.0165" y="-1" relative="1" as="geometry">
            <mxPoint as="offset" />
          </mxGeometry>
        </mxCell>
        <mxCell id="JNarXX4-iZSSUhwLtEHI-9" value="" style="rounded=0;whiteSpace=wrap;html=1;" parent="1" vertex="1">
          <mxGeometry x="337.5" y="320" width="5" height="160" as="geometry" />
        </mxCell>
        <mxCell id="JNarXX4-iZSSUhwLtEHI-10" value="" style="rounded=0;whiteSpace=wrap;html=1;" parent="1" vertex="1">
          <mxGeometry x="577.5" y="320" width="5" height="160" as="geometry" />
        </mxCell>
        <mxCell id="JNarXX4-iZSSUhwLtEHI-11" value="" style="endArrow=classic;html=1;rounded=0;exitX=0.913;exitY=0.167;exitDx=0;exitDy=0;exitPerimeter=0;entryX=0.5;entryY=0.167;entryDx=0;entryDy=0;entryPerimeter=0;" parent="1" edge="1">
          <mxGeometry width="50" height="50" relative="1" as="geometry">
            <mxPoint x="342.5" y="440" as="sourcePoint" />
            <mxPoint x="580.5" y="440" as="targetPoint" />
          </mxGeometry>
        </mxCell>
        <mxCell id="JNarXX4-iZSSUhwLtEHI-12" value="Checking User Group Information" style="edgeLabel;html=1;align=center;verticalAlign=middle;resizable=0;points=[];" parent="JNarXX4-iZSSUhwLtEHI-11" vertex="1" connectable="0">
          <mxGeometry x="-0.0226" y="1" relative="1" as="geometry">
            <mxPoint as="offset" />
          </mxGeometry>
        </mxCell>
        <mxCell id="JNarXX4-iZSSUhwLtEHI-13" value="&lt;span style=&quot;font-size: 16px;&quot;&gt;&lt;b&gt;User / Group Management&lt;/b&gt;&lt;/span&gt;&lt;br&gt;&lt;div&gt;&lt;span style=&quot;font-size: 16px;&quot;&gt;&lt;b&gt;(For Admin)&lt;/b&gt;&lt;/span&gt;&lt;/div&gt;" style="text;html=1;align=center;verticalAlign=middle;whiteSpace=wrap;rounded=0;fillColor=#fff2cc;strokeColor=#d6b656;" parent="1" vertex="1">
          <mxGeometry x="320" y="40" width="280" height="80" as="geometry" />
        </mxCell>
      </root>
    </mxGraphModel>
  </diagram>
  <diagram id="oYzfXi8-wOfwH8-DaNu6" name="Come help (For Admin)">
    <mxGraphModel dx="1050" dy="522" grid="1" gridSize="10" guides="1" tooltips="1" connect="1" arrows="1" fold="1" page="1" pageScale="1" pageWidth="827" pageHeight="1169" math="0" shadow="0">
      <root>
        <mxCell id="0" />
        <mxCell id="1" parent="0" />
        <mxCell id="i78zpH3Nk2PHS27zTuE1-1" value="Users" style="shape=umlActor;verticalLabelPosition=bottom;verticalAlign=top;html=1;outlineConnect=0;" parent="1" vertex="1">
          <mxGeometry x="320" y="160" width="40" height="70" as="geometry" />
        </mxCell>
        <mxCell id="i78zpH3Nk2PHS27zTuE1-3" value="" style="endArrow=none;dashed=1;html=1;dashPattern=1 3;strokeWidth=2;rounded=0;" parent="1" edge="1">
          <mxGeometry width="50" height="50" relative="1" as="geometry">
            <mxPoint x="340" y="320" as="sourcePoint" />
            <mxPoint x="339.5" y="260" as="targetPoint" />
          </mxGeometry>
        </mxCell>
        <mxCell id="i78zpH3Nk2PHS27zTuE1-4" value="" style="endArrow=none;dashed=1;html=1;dashPattern=1 3;strokeWidth=2;rounded=0;entryX=0.5;entryY=1;entryDx=0;entryDy=0;" parent="1" edge="1">
          <mxGeometry width="50" height="50" relative="1" as="geometry">
            <mxPoint x="580" y="320" as="sourcePoint" />
            <mxPoint x="580" y="240" as="targetPoint" />
          </mxGeometry>
        </mxCell>
        <mxCell id="i78zpH3Nk2PHS27zTuE1-5" value="" style="endArrow=classic;html=1;rounded=0;exitX=0.913;exitY=0.167;exitDx=0;exitDy=0;exitPerimeter=0;entryX=0.5;entryY=0.167;entryDx=0;entryDy=0;entryPerimeter=0;" parent="1" edge="1">
          <mxGeometry width="50" height="50" relative="1" as="geometry">
            <mxPoint x="341" y="360" as="sourcePoint" />
            <mxPoint x="579" y="360" as="targetPoint" />
          </mxGeometry>
        </mxCell>
        <mxCell id="i78zpH3Nk2PHS27zTuE1-6" value="Click help" style="edgeLabel;html=1;align=center;verticalAlign=middle;resizable=0;points=[];" parent="i78zpH3Nk2PHS27zTuE1-5" vertex="1" connectable="0">
          <mxGeometry x="-0.0226" y="1" relative="1" as="geometry">
            <mxPoint as="offset" />
          </mxGeometry>
        </mxCell>
        <mxCell id="i78zpH3Nk2PHS27zTuE1-7" value="" style="shape=flexArrow;endArrow=classic;html=1;rounded=0;entryX=1;entryY=0.75;entryDx=0;entryDy=0;exitX=0;exitY=0.75;exitDx=0;exitDy=0;" parent="1" edge="1">
          <mxGeometry width="50" height="50" relative="1" as="geometry">
            <mxPoint x="577.5" y="400" as="sourcePoint" />
            <mxPoint x="342.5" y="400" as="targetPoint" />
          </mxGeometry>
        </mxCell>
        <mxCell id="i78zpH3Nk2PHS27zTuE1-8" value="&lt;font style=&quot;font-size: 9px;&quot;&gt;Come help&lt;/font&gt;" style="edgeLabel;html=1;align=center;verticalAlign=middle;resizable=0;points=[];" parent="i78zpH3Nk2PHS27zTuE1-7" vertex="1" connectable="0">
          <mxGeometry x="0.0165" y="-1" relative="1" as="geometry">
            <mxPoint as="offset" />
          </mxGeometry>
        </mxCell>
        <mxCell id="i78zpH3Nk2PHS27zTuE1-9" value="" style="rounded=0;whiteSpace=wrap;html=1;" parent="1" vertex="1">
          <mxGeometry x="337.5" y="320" width="5" height="120" as="geometry" />
        </mxCell>
        <mxCell id="i78zpH3Nk2PHS27zTuE1-10" value="" style="rounded=0;whiteSpace=wrap;html=1;" parent="1" vertex="1">
          <mxGeometry x="577.5" y="320" width="5" height="120" as="geometry" />
        </mxCell>
        <mxCell id="i78zpH3Nk2PHS27zTuE1-13" value="&lt;span style=&quot;font-size: 16px;&quot;&gt;&lt;b&gt;Come help&lt;/b&gt;&lt;/span&gt;&lt;br&gt;&lt;div&gt;&lt;span style=&quot;font-size: 16px;&quot;&gt;&lt;b&gt;(For Admin)&lt;/b&gt;&lt;/span&gt;&lt;/div&gt;" style="text;html=1;align=center;verticalAlign=middle;whiteSpace=wrap;rounded=0;fillColor=#fff2cc;strokeColor=#d6b656;" parent="1" vertex="1">
          <mxGeometry x="360" y="40" width="200" height="80" as="geometry" />
        </mxCell>
      </root>
    </mxGraphModel>
  </diagram>
  <diagram id="s2yCi90EWXl0So81YlHd" name="Detect Inappropriate Behavior (For Admin)">
    <mxGraphModel dx="1313" dy="653" grid="1" gridSize="10" guides="1" tooltips="1" connect="1" arrows="1" fold="1" page="1" pageScale="1" pageWidth="827" pageHeight="1169" math="0" shadow="0">
      <root>
        <mxCell id="0" />
        <mxCell id="1" parent="0" />
        <mxCell id="WtOAwTxduGIaR1h3huG4-1" value="Users" style="shape=umlActor;verticalLabelPosition=bottom;verticalAlign=top;html=1;outlineConnect=0;" parent="1" vertex="1">
          <mxGeometry x="265.13" y="180" width="40" height="70" as="geometry" />
        </mxCell>
        <mxCell id="WtOAwTxduGIaR1h3huG4-2" value="" style="endArrow=none;dashed=1;html=1;dashPattern=1 3;strokeWidth=2;rounded=0;" parent="1" edge="1">
          <mxGeometry width="50" height="50" relative="1" as="geometry">
            <mxPoint x="285.13" y="340" as="sourcePoint" />
            <mxPoint x="284.63" y="280" as="targetPoint" />
          </mxGeometry>
        </mxCell>
        <mxCell id="WtOAwTxduGIaR1h3huG4-4" value="" style="endArrow=classic;html=1;rounded=0;exitX=0.913;exitY=0.167;exitDx=0;exitDy=0;exitPerimeter=0;entryX=0.5;entryY=0.167;entryDx=0;entryDy=0;entryPerimeter=0;" parent="1" edge="1">
          <mxGeometry width="50" height="50" relative="1" as="geometry">
            <mxPoint x="286.13" y="380" as="sourcePoint" />
            <mxPoint x="524.13" y="380" as="targetPoint" />
          </mxGeometry>
        </mxCell>
        <mxCell id="WtOAwTxduGIaR1h3huG4-5" value="Send report" style="edgeLabel;html=1;align=center;verticalAlign=middle;resizable=0;points=[];" parent="WtOAwTxduGIaR1h3huG4-4" vertex="1" connectable="0">
          <mxGeometry x="-0.0226" y="1" relative="1" as="geometry">
            <mxPoint as="offset" />
          </mxGeometry>
        </mxCell>
        <mxCell id="pTa0cxeFhWvsV5azA4QR-1" value="&lt;div&gt;&lt;span style=&quot;font-size: 16px;&quot;&gt;&lt;b&gt;Detect Inappropriate Behavior&lt;/b&gt;&lt;/span&gt;&lt;/div&gt;&lt;div&gt;&lt;span style=&quot;font-size: 16px;&quot;&gt;&lt;b&gt;(For Admin)&lt;/b&gt;&lt;/span&gt;&lt;/div&gt;" style="text;html=1;align=center;verticalAlign=middle;whiteSpace=wrap;rounded=0;fillColor=#fff2cc;strokeColor=#d6b656;" parent="1" vertex="1">
          <mxGeometry x="279" y="50" width="270" height="80" as="geometry" />
        </mxCell>
        <mxCell id="xiVV-POALgkaG2jgBXeh-1" value="" style="rounded=0;whiteSpace=wrap;html=1;" parent="1" vertex="1">
          <mxGeometry x="282.63" y="340" width="5" height="200" as="geometry" />
        </mxCell>
        <mxCell id="xiVV-POALgkaG2jgBXeh-3" value="" style="endArrow=none;dashed=1;html=1;dashPattern=1 3;strokeWidth=2;rounded=0;entryX=0.5;entryY=1;entryDx=0;entryDy=0;" parent="1" edge="1">
          <mxGeometry width="50" height="50" relative="1" as="geometry">
            <mxPoint x="526.63" y="340" as="sourcePoint" />
            <mxPoint x="526.63" y="260" as="targetPoint" />
          </mxGeometry>
        </mxCell>
        <mxCell id="xiVV-POALgkaG2jgBXeh-4" value="" style="rounded=0;whiteSpace=wrap;html=1;" parent="1" vertex="1">
          <mxGeometry x="524.13" y="340" width="5" height="200" as="geometry" />
        </mxCell>
        <mxCell id="xiVV-POALgkaG2jgBXeh-5" value="System" style="rounded=0;whiteSpace=wrap;html=1;" parent="1" vertex="1">
          <mxGeometry x="466.63" y="180" width="120" height="80" as="geometry" />
        </mxCell>
        <mxCell id="1hbmOL7R-3Vn296Qxip3-3" value="" style="shape=flexArrow;endArrow=classic;html=1;rounded=0;entryX=0.46;entryY=0.59;entryDx=0;entryDy=0;entryPerimeter=0;exitX=-0.805;exitY=0.584;exitDx=0;exitDy=0;exitPerimeter=0;" parent="1" source="xiVV-POALgkaG2jgBXeh-4" edge="1">
          <mxGeometry width="50" height="50" relative="1" as="geometry">
            <mxPoint x="630" y="460" as="sourcePoint" />
            <mxPoint x="419.79999999999995" y="458" as="targetPoint" />
          </mxGeometry>
        </mxCell>
        <mxCell id="1hbmOL7R-3Vn296Qxip3-4" value="Send suspicious data" style="edgeLabel;html=1;align=center;verticalAlign=middle;resizable=0;points=[];" parent="1hbmOL7R-3Vn296Qxip3-3" vertex="1" connectable="0">
          <mxGeometry x="-0.0484" relative="1" as="geometry">
            <mxPoint as="offset" />
          </mxGeometry>
        </mxCell>
        <mxCell id="1hbmOL7R-3Vn296Qxip3-5" value="" style="endArrow=classic;html=1;rounded=0;" parent="1" edge="1">
          <mxGeometry width="50" height="50" relative="1" as="geometry">
            <mxPoint x="422.5" y="500" as="sourcePoint" />
            <mxPoint x="642.5" y="500" as="targetPoint" />
          </mxGeometry>
        </mxCell>
        <mxCell id="1hbmOL7R-3Vn296Qxip3-6" value="Take action on suspicious data" style="edgeLabel;html=1;align=center;verticalAlign=middle;resizable=0;points=[];" parent="1hbmOL7R-3Vn296Qxip3-5" vertex="1" connectable="0">
          <mxGeometry x="-0.0226" y="1" relative="1" as="geometry">
            <mxPoint x="-113" as="offset" />
          </mxGeometry>
        </mxCell>
        <mxCell id="WHsoyh85LgWCpANVREkm-1" value="" style="endArrow=classic;html=1;rounded=0;entryX=1.474;entryY=0.4;entryDx=0;entryDy=0;entryPerimeter=0;" edge="1" parent="1" target="xiVV-POALgkaG2jgBXeh-1">
          <mxGeometry width="50" height="50" relative="1" as="geometry">
            <mxPoint x="520" y="420" as="sourcePoint" />
            <mxPoint x="510" y="240" as="targetPoint" />
          </mxGeometry>
        </mxCell>
        <mxCell id="WHsoyh85LgWCpANVREkm-2" value="Text" style="edgeLabel;html=1;align=center;verticalAlign=middle;resizable=0;points=[];" vertex="1" connectable="0" parent="WHsoyh85LgWCpANVREkm-1">
          <mxGeometry x="0.0325" y="1" relative="1" as="geometry">
            <mxPoint as="offset" />
          </mxGeometry>
        </mxCell>
      </root>
    </mxGraphModel>
  </diagram>
</mxfile>
